<svg width="21" height="20" viewBox="0 0 21 20" fill="none" xmlns="http://www.w3.org/2000/svg">
<path fill-rule="evenodd" clip-rule="evenodd" d="M0.659229 5.84042L3.5476 4.17298L3.1619 3.50511C2.96475 3.16346 3.0812 2.72596 3.42285 2.52837L5.97892 1.05245C6.32072 0.854997 6.75981 0.971747 6.95745 1.31384L7.34227 1.98171L10.2306 0.31397C10.7057 0.0396706 11.3399 0.0154903 11.5631 0.402089L12.2301 1.55759C12.2687 1.6242 12.256 1.70891 12.1739 1.75638L0.936715 8.24445C0.854677 8.29192 0.775163 8.26062 0.736741 8.19371L0.0694779 7.03836C-0.151562 6.65532 0.184447 6.1146 0.659457 5.84029L0.659229 5.84042ZM15.3675 1.04197L15.3677 1.04256C15.2662 1.10131 15.2755 1.40542 15.3727 1.84989C15.6381 3.0622 16.6068 4.74046 17.524 5.57627C17.6209 5.66439 18.0695 6.07074 18.2196 5.98407L19.2843 5.3702C19.1456 5.28164 19.0032 5.17082 18.8594 5.03983C17.8446 4.11489 16.7978 2.3028 16.5041 0.960674C16.4627 0.770787 16.4378 0.592471 16.4305 0.428382L15.3675 1.04197ZM13.5826 2.07256L14.6455 1.45885C14.6528 1.62307 14.6777 1.80138 14.7191 1.99114C15.0131 3.33413 16.0582 5.14444 17.0744 6.07029C17.2182 6.20143 17.3606 6.31225 17.4993 6.40067L16.4358 7.01484C16.3339 7.07329 16.0752 6.91322 15.739 6.60704C14.825 5.77404 13.8524 4.09058 13.5876 2.88065C13.4905 2.4359 13.481 2.1309 13.5826 2.07245L13.5826 2.07256ZM15.7142 7.43156C15.5755 7.34299 15.4331 7.23218 15.2893 7.10118C14.2727 6.17472 13.228 4.36548 12.934 3.02165C12.8926 2.83176 12.8676 2.65344 12.8604 2.48936C12.506 2.69408 12.1519 2.89894 11.7975 3.10368C11.696 3.16243 11.7053 3.46654 11.8025 3.911C12.0678 5.12214 13.0384 6.80306 13.9539 7.63739C14.0507 7.72551 14.4999 8.13227 14.6497 8.04595L15.7142 7.43156ZM17.1529 0.0119053C17.2541 -0.0465458 17.5125 0.113525 17.8485 0.419707C18.7637 1.25373 19.7345 2.93362 19.9998 4.14609C20.0972 4.59054 20.1064 4.89482 20.0049 4.95342L19.9982 4.95742C19.8914 5.00415 19.6371 4.84438 19.3093 4.54559C18.3939 3.71127 17.4229 2.03035 17.1579 0.81921C17.0608 0.37476 17.0514 0.0704843 17.1529 0.0118851L17.1529 0.0119053ZM2.61818 8.04679L1.44741 8.72268L2.39909 19.0856C2.44701 19.6053 2.8882 20 3.42121 20H10.9749C11.5079 20 11.9494 19.605 11.9974 19.0856L13.011 8.04706L2.61818 8.04679ZM9.64856 5.51936L9.71191 5.62928C9.80433 5.78876 10.0086 5.84335 10.1682 5.75093C10.3277 5.6585 10.3823 5.45423 10.2899 5.29459L9.83018 4.49854C9.73775 4.33907 9.53348 4.28448 9.37384 4.3769C9.21436 4.46932 9.15977 4.6736 9.25219 4.83324L9.31509 4.94227L7.20499 6.16051C7.04552 6.25219 6.99033 6.45588 7.08201 6.61548C7.17369 6.77496 7.37737 6.83014 7.53698 6.73847L9.64856 5.51936ZM10.7748 10.4249L10.209 16.586H9.05904L9.62483 10.4249H10.7748ZM7.77859 10.4249L7.76302 16.586L6.61792 16.5858L6.6335 10.4248L7.77859 10.4249ZM3.41613 10.4249H4.56612L5.13191 16.586H3.98191L3.41613 10.4249ZM4.12478 3.83961L6.76524 2.31501L6.37954 1.64847C6.36693 1.62681 6.33548 1.61746 6.31367 1.63007L3.75137 3.11017C3.73669 3.12263 3.73061 3.14473 3.73565 3.16313L4.12478 3.83961Z" fill="#294277"/>
</svg>
