<svg width="28" height="28" viewBox="0 0 28 28" fill="none" xmlns="http://www.w3.org/2000/svg">
<g clip-path="url(#clip0_394_10941)">
<path d="M17.501 8.10568C17.2498 8.10396 17.0034 8.19333 16.8135 8.38325L16.3904 8.81982L19.1799 11.6225L19.603 11.1862C19.9849 10.8044 19.9883 10.1848 19.603 9.79807L18.2017 8.39672C18.0083 8.20336 17.7522 8.10739 17.501 8.10568ZM15.9143 9.2031L15.2535 9.8376L18.1622 12.7463L18.8362 12.125L15.9143 9.2031ZM14.8304 10.3005L10.2559 14.8354C10.1499 14.8899 10.074 14.9858 10.0442 15.0998L9.06595 18.4182C9.02127 18.5637 9.0608 18.7241 9.16822 18.8315C9.27564 18.939 9.43606 18.9785 9.58158 18.9338L12.8999 17.9555C13.0537 17.9323 13.1809 17.8249 13.2305 17.678L17.7391 13.2092L17.1174 12.5876L12.4903 17.2282L10.626 17.7705L10.2293 17.3737L10.7979 15.4301L15.3855 10.8557L14.8304 10.3005ZM15.8352 11.3186L11.1946 15.9724L11.8687 16.1176L11.9612 16.7392L16.6153 12.0986L15.8352 11.3186Z" fill="white"/>
</g>
<circle cx="14" cy="14" r="13.5" stroke="white"/>
<defs>
<clipPath id="clip0_394_10941">
<rect width="11" height="11" fill="white" transform="translate(9 8)"/>
</clipPath>
</defs>
</svg>
