<svg width="18" height="18" viewBox="0 0 18 18" fill="none" xmlns="http://www.w3.org/2000/svg">
<path d="M9 0C7.21997 0 5.47991 0.527841 3.99987 1.51677C2.51983 2.50571 1.36628 3.91131 0.685088 5.55585C0.00389957 7.20038 -0.17433 9.00998 0.172936 10.7558C0.520203 12.5016 1.37737 14.1053 2.63604 15.364C3.89471 16.6226 5.49836 17.4798 7.24419 17.8271C8.99002 18.1743 10.7996 17.9961 12.4442 17.3149C14.0887 16.6337 15.4943 15.4802 16.4832 14.0001C17.4722 12.5201 18 10.78 18 9C18 6.61305 17.0518 4.32387 15.364 2.63604C13.6761 0.948211 11.3869 0 9 0ZM9.03194 14.8397C8.02661 15.3256 6.47227 14.9076 6.74351 13.8954L8.20962 8.4238C8.72246 6.50976 7.31202 7.13735 6.68028 7.41462C7.06664 6.83381 7.60151 6.36707 8.2293 6.06293C9.23462 5.57706 10.789 5.99505 10.5178 7.00729L9.05166 12.4789C8.53877 14.3929 9.94922 13.7653 10.581 13.488C10.1946 14.0689 9.65974 14.5356 9.03194 14.8397ZM11.2897 4.12804C11.242 4.30596 11.1427 4.46574 11.0042 4.58719C10.8657 4.70864 10.6943 4.7863 10.5117 4.81034C10.3291 4.83439 10.1434 4.80374 9.97825 4.72228C9.81305 4.64081 9.67572 4.51219 9.58362 4.35268C9.49152 4.19316 9.44879 4.00992 9.46083 3.82612C9.47288 3.64233 9.53915 3.46623 9.65128 3.32009C9.7634 3.17396 9.91635 3.06436 10.0908 3.00515C10.2652 2.94594 10.4532 2.93978 10.6312 2.98745C10.8697 3.05138 11.0731 3.20747 11.1966 3.42136C11.3201 3.63526 11.3536 3.88946 11.2897 4.12804Z" fill="#BC2119"/>
</svg>
