<svg width="14" height="18" viewBox="0 0 14 18" fill="none" xmlns="http://www.w3.org/2000/svg">
<path fill-rule="evenodd" clip-rule="evenodd" d="M6.56531 0C2.91792 0 0 2.91792 0 6.56531C0 7.58659 0.389056 8.65649 0.778111 9.5805C1.99391 12.158 3.59876 14.6869 5.05772 17.1671C5.73857 18.2856 7.39206 18.2856 8.07291 17.1185C9.48323 14.7355 10.9908 12.3039 12.2066 9.82366C12.6929 8.80238 13.1306 7.68385 13.1306 6.56531C13.1306 2.91792 10.1641 0 6.56531 0ZM6.56531 3.59876C8.2188 3.59876 9.53186 4.91183 9.53186 6.56531C9.53186 8.2188 8.2188 9.53186 6.56531 9.53186C4.91183 9.53186 3.59876 8.2188 3.59876 6.56531C3.59876 4.91183 4.91183 3.59876 6.56531 3.59876Z" fill="#294277"/>
</svg>
