<svg width="66" height="66" viewBox="0 0 66 66" fill="none" xmlns="http://www.w3.org/2000/svg">
<circle cx="33" cy="33" r="33" fill="white"/>
<path d="M25.3279 24.9725C25.3279 24.9725 26.9406 29.4275 28.0151 31.0993C28.6814 32.1349 29.6272 33.8844 33.3902 33.8844C37.1532 33.8844 38.0984 32.1349 38.7653 31.0993C39.8404 29.4282 41.4531 24.9725 41.4531 24.9725C42.0461 24.9725 42.5277 24.4736 42.5277 23.8591V21.631C42.5277 21.0152 42.0461 20.5163 41.4531 20.5163V18.8452C41.4531 14.9472 39.325 11.6044 33.3902 11.6044C27.4763 11.6044 25.3272 14.9466 25.3272 18.8452V20.5163C24.7897 20.5163 24.2515 21.0152 24.2515 21.631V23.8591C24.2521 24.4736 24.7336 24.9725 25.3279 24.9725ZM50.0265 46.1475C50.0136 45.3295 49.9995 44.4898 49.9859 44.3507C49.3467 38.2826 45.0813 35.211 39.2868 34.1039C38.3268 35.2103 36.6987 36.3308 33.3914 36.3308C30.073 36.3308 28.4449 35.204 27.4861 34.0937C21.6677 35.1931 17.3794 38.2654 16.739 44.35C16.7175 44.5555 16.6984 46.2891 16.6812 47.2239L16.6916 47.2124L16.6812 48.061C21.2754 51.7153 26.8556 53.6703 33.3625 53.6703C39.7979 53.6703 45.4698 51.6451 50.0438 48.061V46.1468L50.0265 46.1475Z" fill="#294277"/>
</svg>
