<svg width="370" height="275" viewBox="0 0 370 275" fill="none" xmlns="http://www.w3.org/2000/svg">
<path d="M369.481 241.63H0.519043V241.815H369.481V241.63Z" fill="#EBEBEB"/>
<path d="M332.512 253.508H308.07V253.692H332.512V253.508Z" fill="#EBEBEB"/>
<path d="M244.934 255.511H238.519V255.695H244.934V255.511Z" fill="#EBEBEB"/>
<path d="M307.332 246.655H293.169V246.84H307.332V246.655Z" fill="#EBEBEB"/>
<path d="M71.1029 247.895H39.2297V248.08H71.1029V247.895Z" fill="#EBEBEB"/>
<path d="M82.3467 247.895H77.6735V248.08H82.3467V247.895Z" fill="#EBEBEB"/>
<path d="M166.66 251.011H97.5345V251.196H166.66V251.011Z" fill="#EBEBEB"/>
<path d="M175.417 208.72H32.9248C30.6026 208.72 28.7128 206.83 28.7128 204.508V4.21207C28.7128 1.88982 30.6026 0 32.9248 0H175.417C177.739 0 179.629 1.88982 179.629 4.21207V204.508C179.629 206.83 177.739 208.72 175.417 208.72ZM32.9248 0.185218C30.7037 0.185218 28.8972 1.99166 28.8972 4.21281V204.509C28.8972 206.73 30.7037 208.537 32.9248 208.537H175.417C177.638 208.537 179.444 206.73 179.444 204.509V4.21207C179.444 1.99166 177.638 0.184481 175.417 0.184481L32.9248 0.185218Z" fill="#EBEBEB"/>
<path d="M335.027 208.72H192.536C190.213 208.72 188.324 206.83 188.324 204.508V4.21207C188.324 1.88982 190.214 0 192.536 0H335.027C337.35 0 339.239 1.88982 339.239 4.21207V204.508C339.24 206.83 337.35 208.72 335.027 208.72ZM192.536 0.185218C190.315 0.185218 188.509 1.99166 188.509 4.21281V204.509C188.509 206.73 190.315 208.537 192.536 208.537H335.027C337.248 208.537 339.055 206.73 339.055 204.509V4.21207C339.055 1.99166 337.248 0.184481 335.027 0.184481L192.536 0.185218Z" fill="#EBEBEB"/>
<path d="M300.098 230.651C300.258 228.72 299.994 226.216 297.74 225.473C293.919 224.213 291.651 221.253 291.78 217.906C291.907 214.559 287.885 211.302 284.868 214.439C281.852 217.575 282.254 212.026 278.231 210.678C274.209 209.33 270.8 212.601 271.901 215.591C273.002 218.581 269.033 220.449 264.28 217.906C259.527 215.363 254.298 219.989 255.303 223.609C256.309 227.23 255.486 227.632 252.479 226.425C250.049 225.451 246.072 227.496 245.628 230.651H300.098Z" fill="#E0E0E0"/>
<path d="M96.9102 230.651C97.0962 229.122 97.0143 226.889 95.1163 226.264C92.1499 225.285 90.3899 222.988 90.4896 220.39C90.5884 217.792 87.4663 215.263 85.1241 217.698C82.7819 220.133 83.0948 215.826 79.9719 214.779C76.8498 213.732 74.2021 216.271 75.0574 218.593C75.9126 220.914 72.831 222.364 69.1414 220.39C65.4518 218.416 61.3925 222.007 62.1732 224.817C62.9539 227.628 62.3149 227.94 59.9801 227.003C58.001 226.209 54.7128 227.998 54.6434 230.652H96.9102V230.651Z" fill="#E0E0E0"/>
<path d="M101.825 230.651H171.27C172.247 227.393 169.72 223.484 166.969 222.934C163.589 222.258 160.191 216.309 160.031 212.523C159.87 208.736 153.785 197.088 144.319 204.281C134.854 211.474 137.73 205.34 130.883 203.319C124.036 201.299 119.716 207.113 122.721 211.474C122.721 211.474 115.842 209.75 113.009 216.173C110.176 222.596 113.009 226.585 113.009 226.585C113.009 226.585 104.314 226.332 101.825 230.651Z" fill="#E0E0E0"/>
<path d="M211.055 48.3916C211.055 46.5881 212.517 45.1255 214.321 45.1255C214.647 45.1255 214.961 45.175 215.259 45.2635C215.211 44.9359 215.185 44.6016 215.185 44.2607C215.185 40.4412 218.282 37.3449 222.101 37.3449C222.537 37.3449 222.962 37.3869 223.375 37.4637C224.438 35.7244 226.349 34.5592 228.537 34.5592C231.849 34.5592 234.535 37.2202 234.583 40.5194C234.617 40.5187 234.65 40.5142 234.684 40.5142C237.761 40.5142 240.256 43.0084 240.256 46.0856C240.256 49.1627 237.761 51.6569 234.684 51.6569H214.225L214.229 51.6525C212.468 51.6038 211.055 50.1641 211.055 48.3916Z" fill="#F5F5F5"/>
<path d="M95.9625 67.647C95.9625 65.8435 97.4251 64.3809 99.2286 64.3809C99.5547 64.3809 99.8691 64.4303 100.166 64.5189C100.119 64.1913 100.093 63.857 100.093 63.5161C100.093 59.6966 103.19 56.6002 107.009 56.6002C107.445 56.6002 107.87 56.6423 108.283 56.719C109.346 54.979 111.257 53.8146 113.445 53.8146C116.756 53.8146 119.443 56.4755 119.491 59.7748C119.525 59.774 119.558 59.7696 119.592 59.7696C122.669 59.7696 125.164 62.2638 125.164 65.3409C125.164 68.4181 122.669 70.9123 119.592 70.9123H99.1326L99.1371 70.9078C97.3757 70.8591 95.9625 69.4202 95.9625 67.647Z" fill="#F5F5F5"/>
<path d="M170.076 58.1757C170.076 57.0541 170.985 56.1457 172.107 56.1457C172.31 56.1457 172.505 56.176 172.69 56.2321C172.66 56.0284 172.644 55.8203 172.644 55.6085C172.644 53.2339 174.569 51.3086 176.944 51.3086C177.215 51.3086 177.479 51.3352 177.736 51.3824C178.397 50.3006 179.584 49.5767 180.945 49.5767C183.004 49.5767 184.674 51.2311 184.705 53.2826C184.725 53.2818 184.746 53.2796 184.767 53.2796C186.68 53.2796 188.231 54.8307 188.231 56.7434C188.231 58.6561 186.681 60.2073 184.767 60.2073H172.048L172.051 60.2043C170.955 60.1726 170.076 59.2782 170.076 58.1757Z" fill="#F5F5F5"/>
<path d="M57.9218 54.2086C57.9218 53.087 58.8309 52.1779 59.9525 52.1779C60.1554 52.1779 60.351 52.2089 60.5355 52.2642C60.506 52.0606 60.4897 51.8525 60.4897 51.6407C60.4897 49.266 62.415 47.3408 64.7896 47.3408C65.0604 47.3408 65.3246 47.3666 65.5814 47.4146C66.2426 46.3328 67.4306 45.6089 68.7906 45.6089C70.8494 45.6089 72.5194 47.2633 72.5504 49.3147C72.5718 49.314 72.5917 49.3118 72.6131 49.3118C74.5258 49.3118 76.0769 50.8622 76.0769 52.7756C76.0769 54.6883 74.5258 56.2394 72.6131 56.2394H59.8927L59.895 56.2365C58.8006 56.2055 57.9218 55.3104 57.9218 54.2086Z" fill="#F5F5F5"/>
<path d="M284.301 66.4796C284.301 65.3579 285.21 64.4488 286.332 64.4488C286.535 64.4488 286.73 64.4791 286.915 64.5344C286.885 64.3307 286.869 64.1226 286.869 63.9109C286.869 61.5362 288.794 59.611 291.169 59.611C291.44 59.611 291.704 59.6375 291.961 59.6848C292.622 58.603 293.809 57.8791 295.17 57.8791C297.229 57.8791 298.899 59.5335 298.93 61.5849C298.951 61.5849 298.971 61.582 298.992 61.582C300.905 61.582 302.456 63.1323 302.456 65.0458C302.456 66.9592 300.906 68.5096 298.992 68.5096H286.273L286.275 68.5066C285.18 68.4764 284.301 67.5813 284.301 66.4796Z" fill="#F5F5F5"/>
<path d="M108.637 124.376C108.535 124.004 108.474 123.577 108.446 123.107C108.289 120.474 105.776 120.891 103.637 120.534C101.967 120.255 106.39 116.034 103.022 114.673C102.396 114.42 101.716 114.134 101.396 113.54C100.973 112.754 101.401 111.719 102.13 111.204C102.858 110.689 103.795 110.58 104.687 110.563C105.237 109.895 104.79 108.89 104.258 108.208C103.726 107.526 103.075 106.75 103.276 105.908C103.58 104.638 105.356 104.593 106.638 104.84C107.112 104.072 107.103 103.113 107.333 102.241C107.563 101.369 108.256 100.454 109.152 100.563C109.995 100.665 110.51 101.618 111.337 101.813C112.298 102.039 113.13 101.19 113.883 100.552C114.637 99.9149 115.955 99.5172 116.473 100.357C116.784 100.859 116.598 101.56 116.921 102.055C117.48 102.912 118.807 102.38 119.631 101.772C120.455 101.164 121.767 100.614 122.347 101.458C122.525 101.716 122.564 102.042 122.667 102.338C123.056 103.463 124.273 104.024 125.219 104.745C126.166 105.466 126.917 106.901 126.115 107.781C125.72 108.216 125.024 108.391 124.828 108.945C124.582 109.636 125.289 110.256 125.849 110.732C126.779 111.524 126.948 113.893 125.717 114.541C125.201 114.812 124.443 114.896 124.316 115.466C124.202 115.976 124.72 116.372 125.064 116.765C126.007 117.843 125.607 119.786 124.315 120.406C124.019 120.547 123.656 120.663 123.546 120.972C123.468 121.193 123.554 121.434 123.617 121.66C123.737 122.087 123.777 122.537 123.735 122.979C123.721 123.13 123.69 123.294 123.575 123.393C123.47 123.483 123.323 123.496 123.185 123.503C121.408 123.582 120.55 122.953 119.466 124.5C119.362 124.648 119.252 124.801 119.095 124.893C118.948 124.978 118.774 125.001 118.605 125.015C117.383 125.116 116.585 124.353 115.469 124.21C113.92 124.013 113.592 124.812 112.227 125.453C110.082 126.461 109.041 125.839 108.637 124.376Z" fill="#EBEBEB"/>
<path d="M129.104 122.166C129.002 121.793 128.941 121.366 128.913 120.896C128.756 118.263 126.243 118.68 124.104 118.323C122.434 118.044 126.857 113.823 123.489 112.462C122.863 112.209 122.183 111.923 121.863 111.329C121.44 110.543 121.868 109.509 122.597 108.994C123.326 108.479 124.262 108.369 125.154 108.352C125.704 107.684 125.257 106.679 124.726 105.997C124.194 105.314 123.543 104.539 123.744 103.697C124.048 102.428 125.824 102.382 127.106 102.628C127.58 101.861 127.571 100.902 127.801 100.029C128.03 99.1571 128.724 98.242 129.62 98.3512C130.463 98.4538 130.978 99.4065 131.805 99.6013C132.766 99.8278 133.598 98.9785 134.351 98.3409C135.104 97.7041 136.422 97.3063 136.941 98.1453C137.252 98.6479 137.066 99.3482 137.389 99.8433C137.948 100.701 139.276 100.169 140.099 99.5607C140.924 98.9526 142.236 98.4022 142.816 99.2463C142.994 99.5046 143.033 99.8308 143.135 100.127C143.525 101.252 144.741 101.812 145.688 102.534C146.635 103.255 147.385 104.69 146.584 105.57C146.188 106.005 145.493 106.181 145.297 106.734C145.051 107.425 145.758 108.045 146.317 108.521C147.248 109.313 147.417 111.682 146.187 112.33C145.67 112.602 144.912 112.685 144.785 113.255C144.672 113.764 145.189 114.161 145.533 114.554C146.477 115.633 146.077 117.576 144.785 118.195C144.489 118.336 144.126 118.452 144.016 118.761C143.938 118.983 144.024 119.223 144.087 119.449C144.208 119.876 144.247 120.326 144.206 120.768C144.192 120.919 144.161 121.083 144.046 121.182C143.941 121.272 143.794 121.286 143.656 121.292C141.879 121.371 141.021 120.742 139.936 122.289C139.832 122.437 139.723 122.591 139.567 122.682C139.42 122.768 139.246 122.791 139.076 122.805C137.854 122.906 137.056 122.143 135.94 122C134.391 121.802 134.063 122.602 132.698 123.243C130.548 124.249 129.507 123.627 129.104 122.166Z" fill="#EBEBEB"/>
<path d="M131.076 109.132C130.974 108.759 130.912 108.332 130.884 107.862C130.728 105.229 128.214 105.646 126.076 105.289C124.405 105.01 128.829 100.789 125.461 99.4278C124.835 99.1747 124.155 98.8892 123.835 98.2951C123.412 97.5092 123.84 96.4747 124.568 95.9596C125.297 95.4445 126.234 95.3353 127.126 95.3183C127.676 94.6505 127.229 93.6447 126.697 92.9629C126.164 92.2811 125.514 91.5048 125.715 90.6635C126.019 89.3936 127.795 89.3478 129.077 89.595C129.551 88.8276 129.542 87.8683 129.771 86.996C130.002 86.1238 130.695 85.2088 131.59 85.3173C132.434 85.4198 132.949 86.3725 133.776 86.5673C134.737 86.7939 135.568 85.9445 136.322 85.3069C137.075 84.6701 138.393 84.2724 138.912 85.1114C139.223 85.6139 139.037 86.3142 139.36 86.8093C139.919 87.6668 141.247 87.1348 142.07 86.5267C142.895 85.9187 144.207 85.3682 144.787 86.2124C144.965 86.4706 145.004 86.7968 145.106 87.0927C145.496 88.2173 146.712 88.7781 147.659 89.4991C148.605 90.2208 149.356 91.6553 148.555 92.5356C148.159 92.9703 147.464 93.1459 147.268 93.6993C147.022 94.3908 147.729 95.0106 148.288 95.4866C149.219 96.2784 149.388 98.6471 148.157 99.295C147.64 99.5666 146.882 99.6507 146.756 100.22C146.642 100.73 147.159 101.127 147.503 101.519C148.447 102.598 148.047 104.541 146.755 105.16C146.459 105.302 146.097 105.418 145.987 105.727C145.908 105.947 145.994 106.189 146.057 106.415C146.178 106.842 146.218 107.291 146.176 107.733C146.162 107.884 146.131 108.048 146.016 108.147C145.911 108.237 145.764 108.251 145.626 108.257C143.849 108.336 142.991 107.707 141.907 109.253C141.803 109.402 141.693 109.555 141.536 109.647C141.389 109.732 141.215 109.755 141.045 109.769C139.823 109.869 139.025 109.107 137.909 108.965C136.36 108.768 136.032 109.566 134.668 110.207C132.52 111.215 131.48 110.593 131.076 109.132Z" fill="#EBEBEB"/>
<path d="M144.559 115.623C144.456 115.25 144.395 114.824 144.367 114.354C144.211 111.721 141.697 112.138 139.559 111.781C137.888 111.502 142.312 107.281 138.943 105.919C138.318 105.666 137.638 105.381 137.318 104.787C136.895 104.001 137.323 102.966 138.051 102.451C138.78 101.936 139.717 101.827 140.609 101.81C141.159 101.142 140.711 100.137 140.179 99.4544C139.647 98.7726 138.996 97.9963 139.198 97.155C139.502 95.8851 141.277 95.8393 142.56 96.0858C143.034 95.3183 143.025 94.3591 143.254 93.4868C143.484 92.6146 144.177 91.6996 145.073 91.8088C145.917 91.9114 146.432 92.864 147.259 93.0588C148.22 93.2854 149.051 92.436 149.805 91.7985C150.558 91.1609 151.876 90.7639 152.395 91.6029C152.706 92.1054 152.52 92.8057 152.842 93.3001C153.401 94.1576 154.729 93.6256 155.552 93.0175C156.377 92.4095 157.689 91.859 158.269 92.7031C158.447 92.9614 158.486 93.2876 158.588 93.5835C158.978 94.7081 160.194 95.2689 161.141 95.9899C162.088 96.7116 162.838 98.1461 162.037 99.0264C161.641 99.4611 160.946 99.6367 160.75 100.19C160.504 100.882 161.211 101.501 161.77 101.977C162.701 102.769 162.87 105.138 161.639 105.786C161.122 106.057 160.364 106.141 160.238 106.711C160.124 107.221 160.641 107.617 160.985 108.01C161.929 109.089 161.529 111.032 160.236 111.651C159.941 111.792 159.578 111.908 159.468 112.218C159.39 112.439 159.475 112.679 159.539 112.905C159.659 113.333 159.699 113.782 159.657 114.224C159.643 114.375 159.612 114.539 159.497 114.638C159.392 114.728 159.244 114.742 159.106 114.748C157.329 114.827 156.472 114.198 155.387 115.745C155.283 115.893 155.174 116.047 155.017 116.138C154.87 116.224 154.696 116.247 154.527 116.26C153.305 116.36 152.506 115.598 151.391 115.456C149.842 115.258 149.513 116.057 148.149 116.698C146.002 117.708 144.962 117.086 144.559 115.623Z" fill="#EBEBEB"/>
<path d="M158.185 112.625C158.082 112.252 158.021 111.826 157.993 111.356C157.836 108.723 155.323 109.14 153.184 108.783C151.513 108.504 155.937 104.283 152.568 102.921C151.943 102.668 151.263 102.382 150.943 101.788C150.52 101.003 150.948 99.968 151.676 99.4529C152.405 98.9379 153.342 98.8286 154.234 98.8117C154.784 98.1438 154.336 97.1388 153.804 96.4562C153.272 95.7744 152.621 94.9981 152.823 94.1568C153.127 92.8869 154.902 92.8411 156.185 93.0876C156.659 92.3202 156.65 91.3609 156.879 90.4886C157.109 89.6164 157.802 88.7014 158.698 88.8106C159.542 88.9132 160.057 89.8658 160.884 90.0606C161.845 90.2872 162.676 89.4378 163.43 88.8003C164.184 88.1627 165.501 87.7657 166.02 88.6047C166.331 89.1072 166.145 89.8075 166.467 90.3027C167.026 91.1601 168.354 90.6281 169.177 90.02C170.002 89.412 171.314 88.8615 171.894 89.7057C172.072 89.964 172.111 90.2901 172.213 90.586C172.603 91.7106 173.819 92.2714 174.766 92.9924C175.713 93.7141 176.463 95.1486 175.662 96.029C175.266 96.4636 174.571 96.6392 174.375 97.1927C174.129 97.8841 174.836 98.504 175.395 98.9792C176.326 99.771 176.495 102.14 175.264 102.788C174.747 103.06 173.989 103.143 173.863 103.713C173.749 104.223 174.266 104.619 174.61 105.012C175.554 106.091 175.154 108.034 173.861 108.653C173.566 108.794 173.203 108.91 173.093 109.219C173.015 109.441 173.1 109.681 173.164 109.907C173.283 110.334 173.324 110.784 173.282 111.226C173.268 111.377 173.237 111.541 173.122 111.64C173.017 111.73 172.869 111.744 172.731 111.75C170.954 111.829 170.097 111.2 169.012 112.747C168.908 112.895 168.799 113.048 168.642 113.14C168.495 113.226 168.321 113.248 168.151 113.262C166.929 113.363 166.131 112.601 165.015 112.458C163.466 112.26 163.138 113.06 161.773 113.701C159.628 114.709 158.588 114.087 158.185 112.625Z" fill="#EBEBEB"/>
<path d="M158.362 127.2C158.282 126.907 158.233 126.571 158.211 126.201C158.088 124.128 156.109 124.457 154.425 124.175C153.109 123.955 156.593 120.632 153.94 119.56C153.447 119.361 152.912 119.136 152.66 118.668C152.327 118.049 152.664 117.235 153.238 116.829C153.811 116.423 154.549 116.337 155.252 116.324C155.684 115.798 155.332 115.007 154.914 114.47C154.495 113.932 153.983 113.321 154.141 112.659C154.381 111.659 155.779 111.623 156.788 111.818C157.162 111.213 157.154 110.458 157.335 109.771C157.516 109.085 158.062 108.364 158.767 108.45C159.431 108.531 159.837 109.281 160.488 109.434C161.245 109.612 161.899 108.943 162.492 108.442C163.086 107.94 164.123 107.627 164.532 108.287C164.777 108.683 164.63 109.235 164.885 109.624C165.325 110.3 166.37 109.881 167.019 109.402C167.667 108.923 168.701 108.49 169.157 109.154C169.297 109.357 169.328 109.614 169.409 109.847C169.716 110.733 170.673 111.174 171.419 111.742C172.164 112.311 172.755 113.44 172.124 114.133C171.813 114.475 171.266 114.614 171.111 115.05C170.917 115.594 171.474 116.082 171.914 116.457C172.647 117.08 172.78 118.946 171.811 119.456C171.404 119.67 170.807 119.736 170.708 120.184C170.618 120.586 171.026 120.898 171.296 121.207C172.039 122.056 171.725 123.587 170.706 124.074C170.474 124.185 170.187 124.277 170.102 124.52C170.04 124.694 170.108 124.884 170.157 125.062C170.252 125.398 170.283 125.753 170.25 126.1C170.239 126.219 170.215 126.348 170.124 126.426C170.042 126.497 169.925 126.508 169.817 126.513C168.418 126.575 167.743 126.079 166.889 127.297C166.807 127.414 166.721 127.535 166.597 127.606C166.482 127.673 166.345 127.691 166.212 127.702C165.249 127.781 164.621 127.181 163.742 127.069C162.522 126.913 162.264 127.543 161.189 128.047C159.499 128.842 158.68 128.352 158.362 127.2Z" fill="#EBEBEB"/>
<path d="M165.997 122.166C165.894 121.793 165.833 121.366 165.805 120.896C165.649 118.263 163.135 118.68 160.997 118.323C159.326 118.044 163.75 113.823 160.381 112.462C159.756 112.209 159.076 111.923 158.756 111.329C158.333 110.543 158.761 109.509 159.489 108.994C160.218 108.479 161.154 108.369 162.047 108.352C162.597 107.684 162.149 106.679 161.618 105.997C161.087 105.314 160.435 104.539 160.637 103.697C160.941 102.428 162.716 102.382 163.999 102.628C164.472 101.861 164.464 100.902 164.693 100.029C164.923 99.1571 165.617 98.242 166.512 98.3512C167.356 98.4538 167.871 99.4065 168.698 99.6013C169.659 99.8278 170.49 98.9785 171.244 98.3409C171.997 97.7041 173.315 97.3063 173.834 98.1453C174.144 98.6479 173.958 99.3482 174.281 99.8433C174.84 100.701 176.168 100.169 176.991 99.5607C177.816 98.9526 179.128 98.4022 179.708 99.2463C179.885 99.5046 179.925 99.8308 180.027 100.127C180.417 101.252 181.633 101.812 182.58 102.534C183.526 103.255 184.277 104.69 183.475 105.57C183.08 106.005 182.385 106.181 182.189 106.734C181.943 107.425 182.65 108.045 183.209 108.521C184.14 109.313 184.309 111.682 183.078 112.33C182.561 112.602 181.803 112.685 181.676 113.255C181.563 113.764 182.08 114.161 182.424 114.554C183.368 115.633 182.968 117.576 181.676 118.195C181.381 118.336 181.017 118.452 180.907 118.761C180.829 118.983 180.915 119.223 180.978 119.449C181.099 119.876 181.138 120.326 181.097 120.768C181.083 120.919 181.052 121.083 180.937 121.182C180.832 121.272 180.685 121.286 180.547 121.292C178.77 121.371 177.912 120.742 176.828 122.289C176.723 122.437 176.614 122.591 176.458 122.682C176.311 122.768 176.137 122.791 175.967 122.805C174.745 122.906 173.947 122.143 172.831 122C171.282 121.802 170.954 122.602 169.589 123.243C167.44 124.249 166.4 123.627 165.997 122.166Z" fill="#EBEBEB"/>
<path d="M144.559 99.5909C144.456 99.2183 144.395 98.7918 144.367 98.3217C144.211 95.6888 141.697 96.1057 139.559 95.7486C137.888 95.4696 142.312 91.2487 138.943 89.8872C138.318 89.6341 137.638 89.3485 137.318 88.7545C136.895 87.9686 137.323 86.9341 138.051 86.419C138.78 85.9039 139.717 85.7947 140.609 85.7777C141.159 85.1099 140.711 84.1041 140.179 83.4223C139.647 82.7404 138.996 81.9641 139.198 81.1229C139.502 79.8529 141.277 79.8072 142.56 80.0544C143.034 79.287 143.025 78.3277 143.254 77.4554C143.484 76.5832 144.177 75.6682 145.073 75.7767C145.917 75.8792 146.432 76.8319 147.259 77.0267C148.22 77.2532 149.051 76.4039 149.805 75.7663C150.558 75.1288 151.876 74.7317 152.395 75.5708C152.706 76.0733 152.52 76.7736 152.842 77.2687C153.401 78.1262 154.729 77.5942 155.552 76.9861C156.377 76.3781 157.689 75.8276 158.269 76.6718C158.447 76.93 158.486 77.2562 158.588 77.5521C158.978 78.6767 160.194 79.2375 161.141 79.9585C162.088 80.6802 162.838 82.1147 162.037 82.995C161.641 83.4297 160.946 83.6053 160.75 84.1587C160.504 84.8502 161.211 85.47 161.77 85.946C162.701 86.7378 162.87 89.1065 161.639 89.7544C161.122 90.0267 160.364 90.1101 160.238 90.6798C160.124 91.1889 160.641 91.5859 160.985 91.9785C161.929 93.0574 161.529 95.0003 160.236 95.6194C159.941 95.7611 159.578 95.877 159.468 96.1861C159.39 96.4068 159.475 96.6481 159.539 96.8739C159.659 97.3012 159.699 97.7506 159.657 98.1926C159.643 98.3438 159.612 98.5077 159.497 98.6065C159.392 98.6966 159.244 98.7106 159.106 98.7165C157.329 98.7954 156.472 98.1667 155.387 99.7127C155.283 99.861 155.174 100.014 155.017 100.106C154.87 100.192 154.696 100.214 154.527 100.228C153.305 100.329 152.506 99.5658 151.391 99.4234C149.842 99.2264 149.513 100.025 148.149 100.666C146.002 101.675 144.962 101.053 144.559 99.5909Z" fill="#EBEBEB"/>
<path d="M127.054 100.486C126.951 100.113 126.89 99.6869 126.862 99.2168C126.705 96.5839 124.192 97.0008 122.053 96.6437C120.383 96.3647 124.807 92.1438 121.438 90.7823C120.812 90.5292 120.133 90.2437 119.812 89.6496C119.39 88.8637 119.818 87.8292 120.546 87.3141C121.275 86.799 122.211 86.6898 123.104 86.6728C123.653 86.005 123.206 85 122.674 84.3174C122.142 83.6355 121.491 82.8593 121.693 82.018C121.997 80.7481 123.772 80.7023 125.055 80.9488C125.528 80.1813 125.52 79.222 125.749 78.3498C125.978 77.4776 126.672 76.5626 127.568 76.6718C128.411 76.7743 128.927 77.727 129.754 77.9218C130.714 78.1484 131.545 77.299 132.3 76.6614C133.053 76.0239 134.371 75.6269 134.89 76.4659C135.2 76.9684 135.014 77.6687 135.338 78.1638C135.897 79.0213 137.224 78.4893 138.048 77.8812C138.872 77.2732 140.184 76.7227 140.764 77.5669C140.942 77.8251 140.981 78.1513 141.084 78.4479C141.473 79.5725 142.69 80.1326 143.636 80.8543C144.583 81.576 145.334 83.0105 144.532 83.8909C144.137 84.3255 143.441 84.5011 143.245 85.0546C142.999 85.746 143.706 86.3659 144.266 86.8418C145.196 87.6336 145.365 90.0024 144.135 90.6503C143.619 90.9218 142.861 91.0059 142.734 91.5756C142.62 92.0848 143.137 92.4818 143.481 92.8744C144.425 93.9532 144.025 95.8962 142.733 96.5153C142.438 96.6569 142.075 96.7728 141.965 97.082C141.887 97.3034 141.972 97.5439 142.036 97.7697C142.156 98.197 142.196 98.6464 142.155 99.0884C142.141 99.2397 142.11 99.4035 141.994 99.5024C141.89 99.5924 141.742 99.6064 141.604 99.6123C139.827 99.6913 138.97 99.0626 137.885 100.609C137.781 100.757 137.672 100.91 137.514 101.002C137.368 101.087 137.193 101.11 137.024 101.124C135.802 101.225 135.003 100.462 133.888 100.32C132.339 100.122 132.01 100.921 130.646 101.563C128.498 102.57 127.457 101.949 127.054 100.486Z" fill="#EBEBEB"/>
<path d="M116.422 107.649C116.319 107.276 116.258 106.85 116.23 106.38C116.074 103.747 113.56 104.164 111.422 103.807C109.751 103.528 114.175 99.3068 110.806 97.9454C110.18 97.6922 109.501 97.4067 109.181 96.8126C108.758 96.0267 109.186 94.9922 109.914 94.4771C110.643 93.962 111.58 93.8528 112.472 93.8359C113.021 93.168 112.574 92.1622 112.043 91.4804C111.511 90.7986 110.86 90.0223 111.062 89.181C111.366 87.9111 113.141 87.8653 114.424 88.1125C114.897 87.3451 114.888 86.3858 115.118 85.5135C115.348 84.6413 116.041 83.7263 116.937 83.8355C117.78 83.9381 118.295 84.8907 119.123 85.0856C120.083 85.3121 120.915 84.4627 121.668 83.8252C122.422 83.1884 123.74 82.7906 124.259 83.6296C124.569 84.1322 124.383 84.8324 124.706 85.3276C125.265 86.1851 126.593 85.653 127.416 85.045C128.24 84.4369 129.552 83.8864 130.132 84.7306C130.31 84.9889 130.349 85.315 130.452 85.611C130.842 86.7356 132.058 87.2964 133.004 88.0173C133.951 88.739 134.702 90.1735 133.9 91.0539C133.505 91.4885 132.81 91.6641 132.613 92.2176C132.368 92.909 133.075 93.5289 133.634 94.0048C134.564 94.7966 134.733 97.1654 133.503 97.8133C132.986 98.0848 132.228 98.1689 132.101 98.7386C131.988 99.2485 132.505 99.6448 132.849 100.037C133.793 101.116 133.393 103.059 132.1 103.679C131.805 103.821 131.442 103.937 131.332 104.246C131.253 104.466 131.339 104.708 131.402 104.933C131.523 105.361 131.563 105.81 131.52 106.252C131.506 106.403 131.475 106.567 131.36 106.666C131.256 106.756 131.108 106.77 130.97 106.776C129.193 106.855 128.336 106.226 127.251 107.773C127.147 107.921 127.038 108.075 126.88 108.166C126.734 108.252 126.559 108.275 126.39 108.288C125.168 108.389 124.37 107.626 123.254 107.484C121.705 107.287 121.377 108.085 120.013 108.726C117.865 109.734 116.825 109.112 116.422 107.649Z" fill="#EBEBEB"/>
<path d="M119.645 116.703C119.645 116.703 124.092 122.99 125.625 124.983C127.158 126.976 134.825 139.396 135.868 147.611C135.98 148.487 136.09 149.242 136.197 149.902C132.899 171.668 133.417 211.49 133.533 218.307H143.979C144.075 210.62 144.963 140.345 145.291 138.199C145.637 135.929 150.005 127.283 156.751 123.731C163.498 120.178 169.327 108.423 169.327 108.423H167.177C167.177 108.423 163.191 115.63 157.517 119.616C156.693 120.195 155.84 120.676 154.965 121.129C155.169 114.636 152.709 108.423 152.709 108.423L151.548 109.496C153.116 115.915 152.91 120.026 152.435 122.387C150.531 123.341 148.556 124.446 146.57 126.313C140.685 118.66 137.376 101.16 137.376 101.16L135.869 101.983C135.869 101.983 136.359 106.736 137.815 112.716C138.917 117.245 142.162 125.773 143.672 129.645C142.171 131.729 140.681 134.423 139.226 137.99C139.062 137.736 138.876 137.505 138.658 137.309C134.825 133.843 127.618 117.469 127.618 117.469C125.875 113.662 128.538 103.669 128.538 103.669H126.527L125.625 112.409L120.565 106.889L119.645 107.656L125.011 114.555L127.771 123.297L120.564 115.321L119.645 116.703Z" fill="#E6E6E6"/>
<path d="M298.68 147.823C298.759 147.538 298.806 147.21 298.827 146.849C298.947 144.829 300.875 145.149 302.516 144.875C303.798 144.661 300.404 141.422 302.989 140.378C303.469 140.184 303.991 139.965 304.236 139.509C304.561 138.906 304.232 138.112 303.673 137.717C303.113 137.321 302.395 137.238 301.711 137.224C301.289 136.711 301.632 135.94 302.04 135.417C302.448 134.894 302.947 134.298 302.792 133.653C302.559 132.678 301.197 132.643 300.213 132.833C299.85 132.244 299.857 131.508 299.681 130.839C299.504 130.17 298.972 129.467 298.285 129.551C297.638 129.63 297.243 130.361 296.608 130.511C295.871 130.684 295.233 130.033 294.655 129.544C294.077 129.056 293.065 128.75 292.667 129.394C292.429 129.779 292.571 130.317 292.324 130.697C291.895 131.355 290.876 130.946 290.245 130.48C289.612 130.013 288.606 129.591 288.161 130.238C288.024 130.437 287.995 130.687 287.916 130.914C287.617 131.778 286.684 132.207 285.957 132.761C285.231 133.314 284.655 134.415 285.27 135.09C285.574 135.424 286.107 135.558 286.258 135.983C286.446 136.514 285.904 136.99 285.475 137.354C284.761 137.962 284.631 139.779 285.575 140.276C285.971 140.485 286.553 140.549 286.65 140.986C286.737 141.377 286.34 141.681 286.077 141.983C285.353 142.811 285.659 144.302 286.651 144.777C286.878 144.885 287.157 144.975 287.24 145.212C287.3 145.381 287.235 145.566 287.186 145.739C287.094 146.067 287.063 146.412 287.095 146.751C287.106 146.867 287.13 146.992 287.219 147.068C287.299 147.137 287.412 147.148 287.518 147.152C288.882 147.213 289.539 146.73 290.372 147.917C290.451 148.031 290.536 148.149 290.656 148.219C290.769 148.284 290.902 148.302 291.032 148.312C291.969 148.39 292.582 147.805 293.439 147.695C294.627 147.544 294.879 148.157 295.926 148.649C297.572 149.422 298.371 148.946 298.68 147.823Z" fill="#EBEBEB"/>
<path d="M282.977 146.127C283.056 145.841 283.103 145.513 283.124 145.153C283.244 143.132 285.172 143.452 286.813 143.179C288.095 142.965 284.701 139.727 287.286 138.682C287.765 138.488 288.287 138.268 288.533 137.812C288.857 137.21 288.529 136.416 287.97 136.021C287.41 135.625 286.692 135.542 286.007 135.529C285.586 135.016 285.928 134.245 286.337 133.721C286.745 133.198 287.244 132.603 287.089 131.957C286.856 130.982 285.494 130.948 284.51 131.137C284.146 130.548 284.154 129.812 283.977 129.143C283.801 128.474 283.269 127.772 282.582 127.856C281.935 127.935 281.539 128.665 280.905 128.815C280.167 128.988 279.53 128.337 278.951 127.848C278.374 127.359 277.363 127.054 276.964 127.698C276.726 128.084 276.868 128.622 276.621 129.001C276.192 129.659 275.173 129.25 274.542 128.784C273.909 128.318 272.903 127.895 272.458 128.543C272.321 128.741 272.292 128.991 272.213 129.219C271.914 130.081 270.981 130.511 270.254 131.065C269.527 131.618 268.952 132.719 269.566 133.395C269.87 133.728 270.403 133.863 270.554 134.287C270.742 134.818 270.2 135.293 269.771 135.658C269.057 136.266 268.927 138.083 269.871 138.581C270.268 138.789 270.849 138.854 270.946 139.291C271.033 139.682 270.636 139.986 270.373 140.287C269.649 141.115 269.955 142.606 270.947 143.081C271.174 143.19 271.453 143.279 271.537 143.516C271.597 143.686 271.531 143.87 271.483 144.043C271.391 144.371 271.36 144.716 271.392 145.055C271.403 145.171 271.427 145.296 271.515 145.372C271.596 145.441 271.709 145.452 271.815 145.457C273.179 145.517 273.836 145.035 274.668 146.221C274.748 146.335 274.832 146.453 274.953 146.523C275.065 146.589 275.199 146.606 275.329 146.617C276.266 146.694 276.879 146.109 277.735 146C278.924 145.848 279.176 146.461 280.223 146.953C281.869 147.726 282.668 147.248 282.977 146.127Z" fill="#EBEBEB"/>
<path d="M281.463 136.126C281.542 135.84 281.589 135.512 281.61 135.152C281.73 133.131 283.659 133.451 285.3 133.178C286.581 132.964 283.187 129.726 285.772 128.681C286.252 128.487 286.774 128.267 287.019 127.811C287.344 127.209 287.015 126.414 286.456 126.02C285.897 125.624 285.179 125.541 284.494 125.528C284.072 125.015 284.415 124.244 284.823 123.72C285.231 123.197 285.731 122.602 285.576 121.956C285.343 120.981 283.981 120.946 282.997 121.136C282.634 120.547 282.641 119.811 282.465 119.142C282.288 118.473 281.756 117.77 281.069 117.855C280.422 117.934 280.026 118.664 279.392 118.814C278.655 118.987 278.017 118.336 277.439 117.847C276.86 117.358 275.849 117.053 275.451 117.697C275.213 118.083 275.356 118.621 275.108 119C274.679 119.658 273.66 119.249 273.029 118.783C272.396 118.317 271.39 117.894 270.945 118.542C270.808 118.74 270.779 118.99 270.7 119.218C270.401 120.08 269.468 120.51 268.741 121.064C268.015 121.617 267.439 122.718 268.054 123.393C268.358 123.727 268.891 123.862 269.042 124.286C269.23 124.817 268.688 125.293 268.259 125.657C267.544 126.265 267.415 128.082 268.359 128.58C268.755 128.788 269.337 128.853 269.434 129.289C269.521 129.681 269.124 129.985 268.861 130.286C268.137 131.114 268.443 132.605 269.435 133.08C269.662 133.189 269.941 133.278 270.024 133.515C270.084 133.685 270.018 133.869 269.97 134.042C269.878 134.37 269.847 134.715 269.879 135.054C269.89 135.17 269.914 135.295 270.002 135.371C270.083 135.44 270.196 135.451 270.302 135.456C271.666 135.516 272.323 135.033 273.156 136.22C273.235 136.334 273.319 136.452 273.44 136.522C273.553 136.588 273.686 136.605 273.816 136.616C274.753 136.693 275.366 136.108 276.222 135.999C277.411 135.847 277.663 136.46 278.71 136.952C280.356 137.725 281.154 137.248 281.463 136.126Z" fill="#EBEBEB"/>
<path d="M271.119 141.107C271.198 140.822 271.245 140.494 271.266 140.133C271.386 138.113 273.314 138.433 274.955 138.159C276.237 137.945 272.843 134.707 275.428 133.662C275.908 133.468 276.43 133.249 276.675 132.793C276.999 132.19 276.671 131.396 276.112 131.001C275.552 130.606 274.834 130.523 274.15 130.509C273.728 129.996 274.071 129.225 274.479 128.702C274.887 128.179 275.386 127.583 275.231 126.938C274.998 125.963 273.636 125.928 272.652 126.118C272.289 125.529 272.296 124.793 272.12 124.124C271.943 123.455 271.411 122.752 270.724 122.836C270.077 122.915 269.682 123.646 269.047 123.796C268.31 123.969 267.672 123.317 267.094 122.829C266.516 122.34 265.504 122.035 265.106 122.679C264.868 123.065 265.01 123.602 264.763 123.982C264.334 124.64 263.315 124.231 262.684 123.765C262.051 123.298 261.045 122.875 260.6 123.523C260.463 123.722 260.434 123.972 260.355 124.199C260.056 125.062 259.123 125.492 258.396 126.046C257.67 126.599 257.094 127.7 257.709 128.375C258.012 128.709 258.545 128.844 258.696 129.268C258.884 129.799 258.342 130.274 257.913 130.639C257.199 131.246 257.07 133.064 258.013 133.561C258.41 133.77 258.991 133.834 259.089 134.271C259.176 134.662 258.779 134.966 258.515 135.268C257.791 136.096 258.098 137.587 259.089 138.062C259.316 138.17 259.595 138.26 259.678 138.497C259.738 138.666 259.672 138.851 259.624 139.024C259.532 139.352 259.501 139.697 259.534 140.036C259.545 140.152 259.568 140.277 259.657 140.353C259.737 140.422 259.85 140.433 259.956 140.437C261.319 140.498 261.977 140.015 262.809 141.202C262.889 141.316 262.973 141.433 263.093 141.504C263.206 141.569 263.34 141.587 263.47 141.597C264.407 141.675 265.02 141.09 265.876 140.98C267.065 140.829 267.316 141.442 268.364 141.934C270.011 142.706 270.81 142.229 271.119 141.107Z" fill="#EBEBEB"/>
<path d="M260.665 138.806C260.744 138.521 260.791 138.193 260.812 137.832C260.932 135.812 262.86 136.132 264.501 135.858C265.783 135.644 262.389 132.406 264.974 131.362C265.454 131.167 265.976 130.948 266.221 130.492C266.545 129.889 266.217 129.095 265.658 128.701C265.098 128.305 264.38 128.222 263.696 128.208C263.274 127.696 263.617 126.924 264.025 126.401C264.433 125.878 264.932 125.283 264.778 124.637C264.545 123.662 263.183 123.627 262.198 123.817C261.834 123.228 261.842 122.492 261.666 121.823C261.489 121.154 260.957 120.451 260.27 120.535C259.623 120.614 259.227 121.345 258.593 121.495C257.856 121.668 257.218 121.017 256.64 120.528C256.061 120.039 255.05 119.734 254.652 120.378C254.414 120.764 254.556 121.301 254.309 121.681C253.88 122.339 252.861 121.93 252.23 121.464C251.597 120.997 250.591 120.575 250.146 121.222C250.009 121.421 249.98 121.671 249.901 121.898C249.602 122.761 248.669 123.191 247.942 123.745C247.215 124.298 246.64 125.399 247.255 126.074C247.558 126.408 248.091 126.543 248.242 126.967C248.43 127.498 247.888 127.973 247.459 128.338C246.745 128.946 246.616 130.763 247.559 131.26C247.956 131.469 248.537 131.533 248.634 131.97C248.722 132.361 248.325 132.665 248.061 132.967C247.337 133.795 247.643 135.286 248.635 135.761C248.862 135.869 249.141 135.959 249.225 136.196C249.285 136.365 249.219 136.55 249.171 136.723C249.079 137.051 249.048 137.396 249.08 137.735C249.091 137.851 249.115 137.976 249.203 138.052C249.284 138.121 249.398 138.132 249.503 138.136C250.867 138.197 251.524 137.714 252.357 138.901C252.436 139.015 252.52 139.133 252.641 139.203C252.754 139.268 252.887 139.286 253.017 139.296C253.954 139.374 254.567 138.789 255.423 138.68C256.612 138.528 256.864 139.141 257.911 139.633C259.557 140.406 260.355 139.928 260.665 138.806Z" fill="#EBEBEB"/>
<path d="M260.528 149.99C260.59 149.765 260.627 149.507 260.644 149.223C260.739 147.632 262.257 147.884 263.549 147.668C264.559 147.499 261.886 144.95 263.921 144.127C264.299 143.974 264.71 143.801 264.904 143.442C265.159 142.968 264.901 142.343 264.46 142.031C264.02 141.72 263.454 141.654 262.915 141.644C262.583 141.24 262.853 140.633 263.174 140.221C263.495 139.809 263.888 139.34 263.766 138.832C263.583 138.064 262.51 138.037 261.736 138.186C261.449 137.722 261.455 137.142 261.316 136.616C261.177 136.089 260.758 135.536 260.217 135.602C259.708 135.664 259.396 136.239 258.896 136.357C258.316 136.493 257.814 135.98 257.358 135.595C256.903 135.21 256.107 134.97 255.793 135.477C255.606 135.78 255.718 136.204 255.523 136.503C255.185 137.021 254.383 136.699 253.886 136.331C253.387 135.964 252.595 135.631 252.244 136.141C252.137 136.298 252.114 136.495 252.051 136.673C251.816 137.353 251.081 137.691 250.509 138.127C249.937 138.563 249.483 139.429 249.968 139.961C250.207 140.223 250.627 140.33 250.746 140.665C250.894 141.082 250.467 141.457 250.13 141.744C249.567 142.222 249.465 143.654 250.208 144.045C250.521 144.21 250.978 144.26 251.055 144.604C251.124 144.912 250.811 145.152 250.603 145.389C250.034 146.041 250.275 147.215 251.056 147.589C251.234 147.675 251.453 147.745 251.52 147.932C251.567 148.065 251.515 148.211 251.477 148.347C251.405 148.605 251.38 148.877 251.405 149.144C251.414 149.236 251.433 149.334 251.502 149.394C251.566 149.448 251.655 149.457 251.737 149.461C252.811 149.509 253.329 149.129 253.984 150.063C254.047 150.153 254.114 150.245 254.208 150.3C254.297 150.352 254.402 150.366 254.504 150.374C255.242 150.435 255.724 149.974 256.399 149.889C257.335 149.769 257.533 150.252 258.357 150.64C259.656 151.249 260.285 150.873 260.528 149.99Z" fill="#EBEBEB"/>
<path d="M254.67 146.127C254.749 145.841 254.795 145.513 254.817 145.153C254.937 143.132 256.865 143.452 258.506 143.179C259.788 142.965 256.394 139.727 258.979 138.682C259.458 138.488 259.98 138.268 260.226 137.812C260.551 137.21 260.222 136.416 259.663 136.021C259.103 135.625 258.385 135.542 257.701 135.529C257.279 135.016 257.622 134.245 258.03 133.721C258.438 133.198 258.937 132.603 258.782 131.957C258.549 130.982 257.187 130.948 256.203 131.137C255.84 130.548 255.847 129.812 255.671 129.143C255.494 128.474 254.962 127.772 254.275 127.856C253.628 127.935 253.233 128.665 252.598 128.815C251.861 128.988 251.223 128.337 250.645 127.848C250.067 127.359 249.055 127.054 248.657 127.698C248.419 128.084 248.561 128.622 248.314 129.001C247.885 129.659 246.866 129.25 246.235 128.784C245.602 128.318 244.596 127.895 244.151 128.543C244.014 128.741 243.985 128.991 243.906 129.219C243.607 130.081 242.674 130.511 241.947 131.065C241.221 131.618 240.645 132.719 241.26 133.395C241.564 133.728 242.097 133.863 242.248 134.287C242.436 134.818 241.894 135.293 241.465 135.658C240.751 136.266 240.621 138.083 241.565 138.581C241.961 138.789 242.543 138.854 242.64 139.291C242.727 139.682 242.33 139.986 242.067 140.287C241.343 141.115 241.649 142.606 242.641 143.081C242.868 143.19 243.147 143.279 243.23 143.516C243.29 143.686 243.225 143.87 243.176 144.043C243.084 144.371 243.053 144.716 243.085 145.055C243.096 145.171 243.12 145.296 243.209 145.372C243.289 145.441 243.403 145.452 243.508 145.457C244.872 145.517 245.529 145.035 246.362 146.221C246.441 146.335 246.526 146.453 246.646 146.523C246.759 146.589 246.892 146.606 247.022 146.617C247.959 146.694 248.572 146.109 249.429 146C250.617 145.848 250.869 146.461 251.916 146.953C253.562 147.726 254.361 147.248 254.67 146.127Z" fill="#EBEBEB"/>
<path d="M271.119 128.806C271.198 128.521 271.245 128.193 271.266 127.832C271.386 125.812 273.314 126.132 274.955 125.858C276.237 125.644 272.843 122.406 275.428 121.361C275.908 121.167 276.43 120.948 276.675 120.492C276.999 119.889 276.671 119.095 276.112 118.7C275.552 118.305 274.834 118.221 274.15 118.208C273.728 117.695 274.071 116.924 274.479 116.401C274.887 115.878 275.386 115.282 275.231 114.636C274.998 113.662 273.636 113.627 272.652 113.817C272.289 113.228 272.296 112.491 272.12 111.823C271.943 111.153 271.411 110.451 270.724 110.535C270.077 110.614 269.682 111.345 269.047 111.494C268.31 111.668 267.672 111.016 267.094 110.528C266.516 110.038 265.504 109.734 265.106 110.378C264.868 110.764 265.01 111.301 264.763 111.68C264.334 112.339 263.315 111.93 262.684 111.463C262.051 110.997 261.045 110.574 260.6 111.222C260.463 111.421 260.434 111.671 260.355 111.898C260.056 112.761 259.123 113.191 258.396 113.744C257.67 114.298 257.094 115.399 257.709 116.074C258.012 116.407 258.545 116.543 258.696 116.967C258.884 117.497 258.342 117.973 257.913 118.338C257.199 118.945 257.07 120.763 258.013 121.26C258.41 121.469 258.991 121.533 259.089 121.97C259.176 122.361 258.779 122.665 258.515 122.967C257.791 123.795 258.098 125.285 259.089 125.761C259.316 125.869 259.595 125.958 259.678 126.195C259.738 126.365 259.672 126.55 259.624 126.723C259.532 127.051 259.501 127.396 259.534 127.735C259.545 127.85 259.568 127.976 259.657 128.052C259.737 128.121 259.85 128.132 259.956 128.136C261.319 128.197 261.977 127.714 262.809 128.901C262.889 129.014 262.973 129.132 263.093 129.202C263.206 129.268 263.34 129.286 263.47 129.296C264.407 129.374 265.02 128.788 265.876 128.679C267.065 128.528 267.316 129.14 268.364 129.633C270.011 130.405 270.81 129.928 271.119 128.806Z" fill="#EBEBEB"/>
<path d="M284.55 129.492C284.629 129.207 284.676 128.879 284.697 128.518C284.817 126.498 286.745 126.818 288.386 126.544C289.668 126.33 286.274 123.092 288.859 122.047C289.339 121.853 289.861 121.634 290.106 121.178C290.43 120.575 290.102 119.781 289.543 119.386C288.983 118.991 288.265 118.908 287.581 118.894C287.159 118.381 287.502 117.61 287.91 117.087C288.318 116.564 288.817 115.968 288.662 115.323C288.429 114.348 287.067 114.313 286.083 114.503C285.719 113.914 285.727 113.178 285.551 112.509C285.374 111.84 284.842 111.138 284.155 111.221C283.508 111.3 283.112 112.031 282.478 112.181C281.741 112.354 281.103 111.702 280.524 111.214C279.947 110.725 278.935 110.42 278.537 111.064C278.299 111.449 278.441 111.987 278.194 112.367C277.765 113.025 276.746 112.616 276.115 112.15C275.482 111.683 274.476 111.26 274.031 111.908C273.894 112.107 273.865 112.356 273.786 112.584C273.487 113.448 272.554 113.877 271.827 114.431C271.1 114.984 270.525 116.085 271.14 116.76C271.443 117.094 271.976 117.228 272.127 117.653C272.315 118.184 271.773 118.66 271.344 119.024C270.63 119.631 270.501 121.449 271.444 121.946C271.841 122.155 272.422 122.219 272.52 122.656C272.607 123.047 272.21 123.351 271.946 123.653C271.222 124.481 271.528 125.972 272.52 126.447C272.747 126.555 273.026 126.645 273.109 126.882C273.169 127.051 273.103 127.236 273.055 127.409C272.963 127.737 272.932 128.082 272.964 128.421C272.976 128.537 272.999 128.662 273.088 128.738C273.168 128.807 273.281 128.818 273.387 128.822C274.751 128.883 275.408 128.4 276.241 129.587C276.321 129.7 276.405 129.819 276.525 129.889C276.638 129.954 276.771 129.972 276.901 129.982C277.838 130.06 278.451 129.475 279.308 129.365C280.496 129.214 280.748 129.827 281.795 130.319C283.442 131.092 284.241 130.615 284.55 129.492Z" fill="#EBEBEB"/>
<path d="M292.708 134.989C292.787 134.704 292.834 134.376 292.855 134.015C292.976 131.995 294.904 132.315 296.545 132.041C297.827 131.827 294.432 128.588 297.017 127.544C297.498 127.35 298.019 127.131 298.264 126.675C298.589 126.072 298.261 125.278 297.701 124.883C297.142 124.488 296.424 124.404 295.739 124.391C295.318 123.878 295.66 123.107 296.068 122.584C296.476 122.061 296.976 121.465 296.821 120.82C296.588 119.845 295.226 119.81 294.242 120C293.878 119.411 293.885 118.674 293.709 118.006C293.533 117.337 293.001 116.634 292.314 116.718C291.667 116.797 291.271 117.528 290.636 117.677C289.899 117.851 289.262 117.199 288.683 116.711C288.105 116.222 287.094 115.917 286.696 116.561C286.457 116.946 286.6 117.484 286.353 117.863C285.923 118.522 284.905 118.113 284.273 117.646C283.641 117.18 282.634 116.757 282.189 117.405C282.053 117.604 282.023 117.854 281.944 118.081C281.645 118.944 280.712 119.374 279.986 119.927C279.259 120.481 278.683 121.582 279.299 122.257C279.602 122.591 280.136 122.726 280.286 123.15C280.474 123.68 279.932 124.156 279.503 124.521C278.789 125.128 278.66 126.946 279.604 127.443C280 127.652 280.581 127.716 280.679 128.153C280.766 128.544 280.369 128.848 280.105 129.15C279.382 129.978 279.688 131.469 280.68 131.944C280.906 132.052 281.185 132.142 281.268 132.378C281.329 132.548 281.263 132.733 281.215 132.906C281.122 133.234 281.091 133.579 281.124 133.918C281.135 134.034 281.158 134.159 281.247 134.235C281.327 134.304 281.44 134.315 281.547 134.319C282.91 134.38 283.568 133.897 284.4 135.084C284.48 135.197 284.564 135.315 284.684 135.385C284.797 135.451 284.931 135.468 285.061 135.479C285.998 135.557 286.61 134.971 287.467 134.862C288.656 134.711 288.907 135.323 289.955 135.816C291.6 136.588 292.399 136.111 292.708 134.989Z" fill="#EBEBEB"/>
<path d="M290.234 141.936C290.234 141.936 286.823 146.759 285.646 148.289C284.47 149.818 278.588 159.347 277.787 165.65C277.701 166.322 277.617 166.901 277.535 167.408C280.066 184.108 279.669 214.662 279.579 219.893H271.563C271.489 213.995 270.808 160.075 270.557 158.429C270.292 156.687 266.941 150.053 261.764 147.327C256.588 144.601 252.115 135.582 252.115 135.582H253.765C253.765 135.582 256.823 141.112 261.176 144.17C261.809 144.615 262.463 144.984 263.135 145.331C262.979 140.349 264.866 135.582 264.866 135.582L265.757 136.405C264.554 141.33 264.712 144.484 265.076 146.296C266.537 147.028 268.053 147.876 269.577 149.308C274.092 143.437 276.631 130.009 276.631 130.009L277.787 130.641C277.787 130.641 277.411 134.287 276.294 138.876C275.448 142.351 272.959 148.895 271.8 151.865C272.951 153.465 274.095 155.531 275.211 158.268C275.337 158.073 275.48 157.896 275.646 157.745C278.588 155.086 284.117 142.523 284.117 142.523C285.454 139.602 283.411 131.935 283.411 131.935H284.954L285.646 138.64L289.528 134.405L290.234 134.994L286.117 140.287L283.999 146.994L289.528 140.876L290.234 141.936Z" fill="#E6E6E6"/>
<path d="M86.7391 231.882H91.8381L91.8381 67.5777H86.7391L86.7391 231.882Z" fill="#E6E6E6"/>
<path d="M45.5093 231.951V241.499H314.532V231.951C314.532 230.293 313.375 228.955 311.716 228.955H48.3252C46.6663 228.954 45.5093 230.293 45.5093 231.951Z" fill="#E0E0E0"/>
<path d="M299.199 228.954H282.473V241.499H299.199V228.954Z" fill="#F5F5F5"/>
<path d="M267.139 228.954H251.109V241.499H267.139V228.954Z" fill="#F5F5F5"/>
<path d="M235.776 228.954H219.049V241.499H235.776V228.954Z" fill="#F5F5F5"/>
<path d="M203.717 228.954H187.687V241.499H203.717V228.954Z" fill="#F5F5F5"/>
<path d="M172.354 228.954H156.324V241.499H172.354V228.954Z" fill="#F5F5F5"/>
<path d="M140.991 228.954H124.265V241.499H140.991V228.954Z" fill="#F5F5F5"/>
<path d="M108.931 228.954H92.9014V241.499H108.931V228.954Z" fill="#F5F5F5"/>
<path d="M77.5689 228.954H60.8424V241.499H77.5689V228.954Z" fill="#F5F5F5"/>
<path d="M89.2887 93.1311C98.4841 93.1311 105.938 85.6768 105.938 76.4814C105.938 67.286 98.4841 59.8316 89.2887 59.8316C80.0933 59.8316 72.6389 67.286 72.6389 76.4814C72.6389 85.6768 80.0933 93.1311 89.2887 93.1311Z" fill="#E0E0E0"/>
<path d="M89.2886 90.1064C96.8135 90.1064 102.914 84.0063 102.914 76.4814C102.914 68.9565 96.8135 62.8564 89.2886 62.8564C81.7637 62.8564 75.6636 68.9565 75.6636 76.4814C75.6636 84.0063 81.7637 90.1064 89.2886 90.1064Z" fill="#EBEBEB"/>
<path d="M82.1904 83.0489L83.5571 80.0175C85.0233 81.086 87.2105 81.8313 89.2974 81.8313C91.6831 81.8313 92.652 81.0358 92.652 79.9673C92.652 76.7116 82.538 78.9482 82.538 72.487C82.538 69.5301 84.9237 67.0699 89.8685 67.0699C92.0557 67.0699 94.2924 67.5923 95.9077 68.6107L94.665 71.6672C93.0497 70.7477 91.385 70.3005 89.8442 70.3005C87.4585 70.3005 86.539 71.1949 86.539 72.2885C86.539 75.494 96.653 73.2825 96.653 79.6685C96.653 82.5766 94.2422 85.0612 89.2723 85.0612C86.5147 85.062 83.7312 84.2414 82.1904 83.0489Z" fill="#E0E0E0"/>
<path d="M185 274.957C264.018 274.957 328.075 271.216 328.075 266.602C328.075 261.987 264.018 258.246 185 258.246C105.982 258.246 41.9247 261.987 41.9247 266.602C41.9247 271.216 105.982 274.957 185 274.957Z" fill="#F5F5F5"/>
<path d="M309.876 267.25H197.123C192.883 267.25 189.447 263.814 189.447 259.574V44.5108C189.447 40.2715 192.883 36.835 197.123 36.835H309.876C314.115 36.835 317.552 40.2715 317.552 44.5116V259.574C317.553 263.813 314.115 267.25 309.876 267.25Z" fill="#263238"/>
<path d="M313.229 44.5537V259.118C313.229 260.883 311.811 262.254 310.046 262.254H196.614C194.992 262.254 193.77 260.998 193.77 259.376V44.2961C193.77 42.8911 194.801 41.6625 196.206 41.6625H224.564C225.365 41.6625 226.091 42.1849 226.39 42.9383L227.564 45.8295C227.862 46.5763 228.589 47.0921 229.389 47.0921H277.669C278.47 47.0921 279.196 46.5962 279.494 45.8502L280.668 42.945C280.967 42.1916 281.693 41.6625 282.494 41.6625H310.445C311.994 41.6625 313.229 43.0062 313.229 44.5537Z" fill="#294277"/>
<path opacity="0.3" d="M313.229 55.0676H193.77V250.188H313.229V55.0676Z" fill="white"/>
<path opacity="0.6" d="M206.934 50.3092H208.41V48.3419H206.934V50.3092Z" fill="white"/>
<path opacity="0.6" d="M204.529 50.309H206.005V47.6856H204.529V50.309Z" fill="white"/>
<path opacity="0.6" d="M202.125 50.3095H203.6V47.0302H202.125V50.3095Z" fill="white"/>
<path opacity="0.6" d="M199.72 50.3093H201.196V46.3732H199.72V50.3093Z" fill="white"/>
<path opacity="0.6" d="M299.708 47.6242H298.834V49.5915H299.708V47.6242Z" fill="white"/>
<path opacity="0.6" d="M300.31 50.3095H307.278V46.9069H300.31V50.3095Z" fill="white"/>
<path opacity="0.4" d="M311.556 76.3729V133.865C311.556 135.643 310.117 137.089 308.331 137.089H198.668C196.89 137.089 195.443 135.643 195.443 133.865V76.3729C195.443 74.5945 196.89 73.1482 198.668 73.1482H308.331C310.117 73.1482 311.556 74.5945 311.556 76.3729Z" fill="white"/>
<path d="M282.193 135.409H224.806C223.323 135.409 222.12 134.206 222.12 132.723V77.5137C222.12 76.0305 223.323 74.8277 224.806 74.8277H282.193C283.676 74.8277 284.879 76.0305 284.879 77.5137V132.723C284.879 134.206 283.677 135.409 282.193 135.409Z" fill="white"/>
<path d="M212.661 106.753C212.661 108.991 210.848 110.804 208.611 110.804C206.374 110.804 204.56 108.99 204.56 106.753C204.56 104.517 206.374 102.703 208.611 102.703C210.848 102.703 212.661 104.517 212.661 106.753Z" fill="#263238"/>
<path opacity="0.2" d="M211.036 106.753C211.036 108.093 209.95 109.179 208.611 109.179C207.272 109.179 206.185 108.093 206.185 106.753C206.185 105.414 207.272 104.328 208.611 104.328C209.95 104.328 211.036 105.414 211.036 106.753Z" fill="black"/>
<path d="M198.868 100.744L199.925 99.1873C199.925 99.1873 203.928 99.6736 205.68 98.0192H210.789L211.037 98.214L205.242 102.703L199.925 101.96L198.868 100.744Z" fill="#263238"/>
<path d="M208.611 101.572H210.545L213.513 106.242H214.194L212.053 101.572V99.8684H210.253L208.611 101.572Z" fill="#263238"/>
<path d="M195.443 96.2681L195.547 96.6223L195.443 97.0946V96.2681Z" fill="#263238"/>
<path d="M196.425 93.6632L195.982 94.4676L196.676 94.7996L196.86 95.3014L196.639 95.5597L197.406 96.1205C197.406 96.1205 197.554 96.5116 197.155 96.6223L196.203 96.1205H195.443V94.3938H195.768L196.167 93.5156C196.167 93.5156 195.842 92.7187 197.229 92.1653L197.554 92.4235V93.1172L197.118 93.5156L196.425 93.6632Z" fill="#263238"/>
<path d="M195.953 97.6776L195.443 98.4007V97.1831L195.953 97.6776Z" fill="#294277"/>
<path d="M213.515 98.6516L212.202 100.592L212.054 100.474L211.67 100.157L209.184 101.47L208.962 101.574L203.93 103.906L204.269 104.326H206.896L207.191 104.791L206.343 105.905L204.756 107.994L204.129 108.82H195.443V101.751C196.211 102.282 197.067 102.784 197.48 102.732C197.532 102.732 197.569 102.725 197.606 102.703C197.657 102.673 197.709 102.644 197.746 102.607C197.761 102.599 197.768 102.585 197.783 102.577C197.82 102.54 197.849 102.504 197.871 102.467C197.886 102.445 197.901 102.422 197.908 102.4C197.93 102.356 197.945 102.312 197.952 102.267C198.019 101.943 197.797 101.618 197.797 101.618L198.867 100.747L198.875 100.74C204.852 100.888 206.512 99.3821 206.512 99.3821L211.028 98.2088H211.043L213.515 98.6516Z" fill="#294277"/>
<path d="M207.191 104.791L206.343 105.905L204.756 107.994L204.129 108.82H195.443V108.444L196.971 108.186L196.683 106.533L200.506 103.736L202.033 104.326L203.93 103.906L204.269 104.326H206.896L207.191 104.791Z" fill="#263238"/>
<path d="M197.481 102.732C197.097 102.939 196.728 103.005 196.728 103.005L195.444 102.363V101.751C196.211 102.282 197.067 102.784 197.481 102.732Z" fill="#263238"/>
<path opacity="0.2" d="M195.953 97.6776L195.443 98.4007V97.1831L195.953 97.6776Z" fill="black"/>
<path opacity="0.2" d="M199.598 101.958L197.266 104.326L195.444 103.301V101.751C196.211 102.282 197.067 102.784 197.48 102.732C197.532 102.732 197.569 102.725 197.606 102.703C197.657 102.673 197.709 102.644 197.746 102.607C197.761 102.6 197.768 102.585 197.783 102.577C197.82 102.54 197.849 102.504 197.871 102.467C197.886 102.445 197.901 102.422 197.908 102.4C197.93 102.356 197.945 102.312 197.953 102.267C198.019 101.943 197.798 101.618 197.798 101.618L199.598 101.958Z" fill="black"/>
<path opacity="0.2" d="M213.515 98.6516L212.202 100.592L212.055 100.474L211.671 100.157L209.184 101.47L208.962 101.574L203.93 103.906L204.269 104.326H206.896L207.191 104.791L206.343 105.905L204.756 107.994L204.129 108.82H195.444V103.824L197.554 104.953L200.433 103.05L203.325 103.419L204.852 102.651L206.195 101.965L210.173 99.9577L210.342 99.8692L211.405 99.3305L213.515 98.6516Z" fill="black"/>
<path d="M231.126 106.17H274.923L274.047 98.3239L261.43 95.6239L249.704 97.6672L235.578 99.0537L232.075 103.068L231.126 106.17Z" fill="#263238"/>
<path opacity="0.2" d="M231.126 106.17H274.923L274.047 98.3239L261.43 95.6239L249.704 97.6672L235.578 99.0537L232.075 103.068L231.126 106.17Z" fill="black"/>
<path d="M243.314 106.17C243.314 108.729 241.239 110.804 238.68 110.804C236.121 110.804 234.046 108.729 234.046 106.17C234.046 103.61 236.121 101.535 238.68 101.535C241.239 101.535 243.314 103.61 243.314 106.17Z" fill="#263238"/>
<path opacity="0.2" d="M238.68 109.271C240.393 109.271 241.781 107.882 241.781 106.17C241.781 104.457 240.393 103.068 238.68 103.068C236.967 103.068 235.578 104.457 235.578 106.17C235.578 107.882 236.967 109.271 238.68 109.271Z" fill="black"/>
<path d="M273.569 106.17C273.569 108.729 271.494 110.804 268.935 110.804C266.375 110.804 264.3 108.729 264.3 106.17C264.3 103.61 266.375 101.535 268.935 101.535C271.494 101.535 273.569 103.61 273.569 106.17Z" fill="#263238"/>
<path opacity="0.2" d="M268.934 109.271C270.647 109.271 272.036 107.882 272.036 106.17C272.036 104.457 270.647 103.068 268.934 103.068C267.221 103.068 265.833 104.457 265.833 106.17C265.833 107.882 267.221 109.271 268.934 109.271Z" fill="black"/>
<path d="M277.914 102.045L277.405 105.668L274.556 106.568C274.556 106.568 274.482 100.443 268.284 100.443C262.078 100.443 262.882 107.741 262.882 107.741H261.797L259.753 106.863H246.367L245.202 107.741H244.412C244.412 107.741 245.069 100.443 238.678 100.443C232.295 100.443 233.1 107.741 233.1 107.741L229.447 106.17L229.085 102.487L230.613 101.535L230.982 99.2995C231.144 99.174 231.314 99.056 231.484 98.9453C235.756 96.0821 241.601 95.6984 241.601 95.6984C246.626 90.5846 248.662 89.8614 248.662 89.8614C260.196 89.0571 271.199 90.2968 271.199 90.2968L274.556 94.5989L275.346 95.2409L276.165 95.9124C276.674 98.2516 276.526 100.443 276.526 100.443L277.914 102.045Z" fill="#294277"/>
<path opacity="0.6" d="M234.657 99.1962L232.096 101.535H230.613L230.982 99.2995C231.144 99.174 231.314 99.0559 231.484 98.9453L233.343 98.6649L234.657 99.1962Z" fill="white"/>
<path opacity="0.6" d="M276.526 100.443L275.597 100.096C275.597 98.1557 274.431 96.2076 274.431 96.2076L275.346 95.2409L276.165 95.9124C276.674 98.2516 276.526 100.443 276.526 100.443Z" fill="white"/>
<path d="M274.556 94.5989C268.483 96.0526 241.601 95.6984 241.601 95.6984C241.756 95.5434 241.903 95.3885 242.058 95.2409C244.825 92.4663 246.626 91.0938 247.637 90.437C248.338 89.9721 248.663 89.8614 248.663 89.8614C260.196 89.0571 271.199 90.2968 271.199 90.2968L274.556 94.5989Z" fill="#263238"/>
<path opacity="0.6" d="M248.891 90.437L244.508 95.2409H242.058C244.825 92.4663 246.626 91.0938 247.637 90.437H248.891Z" fill="white"/>
<path opacity="0.6" d="M245.747 95.2409L249.615 90.4348H255.38L254.942 95.2409H245.747Z" fill="white"/>
<path opacity="0.6" d="M256.329 95.2409L256.839 90.4348H264.794L266.181 94.793C266.181 94.793 261.365 95.2409 256.329 95.2409Z" fill="white"/>
<path opacity="0.6" d="M265.729 90.4348L267.204 94.6749C267.204 94.6749 271.875 94.3827 272.531 94.0912L270.574 91.4516C270.239 91 269.704 90.8185 269.149 90.7336C267.179 90.4348 265.729 90.4348 265.729 90.4348Z" fill="white"/>
<path opacity="0.2" d="M277.914 102.045L277.405 105.668L274.556 106.568C274.556 106.568 274.482 100.443 268.284 100.443C262.078 100.443 262.882 107.741 262.882 107.741H261.797L259.753 106.863H246.367L245.202 107.741H244.412C244.412 107.741 245.069 100.443 238.678 100.443C232.295 100.443 233.1 107.741 233.1 107.741L229.447 106.17L229.085 102.487H232.096C232.096 102.487 234.288 98.9084 239.106 98.9084C243.925 98.9084 245.475 102.487 245.475 102.487H260.927C260.927 102.487 263.554 98.8567 267.42 98.6648C271.287 98.473 273.567 100.096 273.567 100.096H275.597L276.526 100.443L277.914 102.045Z" fill="black"/>
<path d="M311.556 97.9358V107.839H296.443C296.443 107.839 297.447 104.452 298.229 102.149C298.613 101.006 298.945 100.12 299.07 100.054C301.07 98.9615 305.763 98.3048 311.556 97.9358Z" fill="#263238"/>
<path opacity="0.2" d="M311.556 97.9358V107.839H296.443C296.443 107.839 297.447 104.452 298.229 102.149C298.613 101.006 298.945 100.12 299.07 100.054C301.07 98.9615 305.763 98.3048 311.556 97.9358Z" fill="black"/>
<path d="M304.838 110.804C307.276 110.804 309.253 108.827 309.253 106.389C309.253 103.95 307.276 101.973 304.838 101.973C302.399 101.973 300.422 103.95 300.422 106.389C300.422 108.827 302.399 110.804 304.838 110.804Z" fill="#263238"/>
<path opacity="0.2" d="M304.838 110.293C306.994 110.293 308.742 108.545 308.742 106.389C308.742 104.232 306.994 102.484 304.838 102.484C302.681 102.484 300.933 104.232 300.933 106.389C300.933 108.545 302.681 110.293 304.838 110.293Z" fill="white"/>
<path d="M305.881 93.7223C308.043 92.4014 309.91 91.324 311.556 90.4532V109.145H310.117L309.873 107.839L309.313 104.821C308.98 103.013 307.409 101.707 305.571 101.707H303.808C302.103 101.707 300.612 102.836 300.147 104.474L299.196 107.839L298.827 109.145L292.842 108.37L293.602 103.286L293.72 102.481L294.886 101.707L297.174 96.4526L299.299 95.7884L305.881 93.7223Z" fill="#294277"/>
<path opacity="0.7" d="M300.423 96.1596L297.611 100.927L294.888 101.709L297.176 96.4548L299.301 95.7906C299.966 95.9825 300.423 96.1596 300.423 96.1596Z" fill="white"/>
<path opacity="0.4" d="M311.556 91.7594V94.6078C309.999 94.6299 308.479 94.5487 307.173 94.3126C307.173 94.3126 309.283 93.0507 311.556 91.7594Z" fill="black"/>
<path opacity="0.2" d="M311.556 103.404V109.145H310.117L309.873 107.839L309.313 104.821C308.981 103.013 307.409 101.707 305.571 101.707H303.808C302.103 101.707 300.612 102.836 300.148 104.474L299.196 107.839L298.827 109.145L292.842 108.37L293.602 103.286L298.096 101.972L298.229 102.149L299.07 103.264C299.07 103.264 300.539 100.437 305.549 100.437C309.549 100.437 311.098 102.555 311.556 103.404Z" fill="black"/>
<path d="M264.213 129.537H242.786C240.861 129.537 239.3 127.977 239.3 126.052C239.3 124.127 240.861 122.567 242.786 122.567H264.213C266.138 122.567 267.699 124.128 267.699 126.052C267.699 127.977 266.139 129.537 264.213 129.537Z" fill="#294277"/>
<path d="M311.556 57.9344H195.443V71.3632H311.556V57.9344Z" fill="#294277"/>
<path opacity="0.6" d="M253.48 41.9451C253.48 42.8505 252.746 43.5848 251.84 43.5848C250.935 43.5848 250.201 42.8505 250.201 41.9451C250.201 41.0397 250.935 40.3054 251.84 40.3054C252.746 40.3054 253.48 41.0397 253.48 41.9451Z" fill="white"/>
<path opacity="0.6" d="M256.798 41.9451C256.798 42.5251 256.328 42.9952 255.748 42.9952C255.168 42.9952 254.698 42.5251 254.698 41.9451C254.698 41.3651 255.168 40.8943 255.748 40.8943C256.328 40.8943 256.798 41.3651 256.798 41.9451Z" fill="white"/>
<path opacity="0.2" d="M217.389 103.815L220.983 108.61V99.0198L217.389 103.815Z" fill="black"/>
<path opacity="0.2" d="M289.61 103.815L286.016 99.0198V108.61L289.61 103.815Z" fill="black"/>
<path d="M219.888 66.0892L220.198 65.3934C220.584 65.7033 221.197 65.9239 221.789 65.9239C222.54 65.9239 222.857 65.6553 222.857 65.2967C222.857 64.2562 219.99 64.9388 219.99 63.1464C219.99 62.3679 220.611 61.706 221.934 61.706C222.512 61.706 223.119 61.858 223.54 62.1332L223.257 62.8291C222.823 62.5738 222.347 62.4498 221.927 62.4498C221.183 62.4498 220.879 62.7391 220.879 63.1043C220.879 64.1308 223.739 63.4622 223.739 65.2332C223.739 66.0051 223.112 66.6663 221.789 66.6663C221.038 66.6678 220.288 66.4338 219.888 66.0892Z" fill="white"/>
<path d="M228.246 65.8479V66.5991H224.629V61.7753H228.15V62.5265H225.525V63.781H227.854V64.5182H225.525V65.8479H228.246Z" fill="white"/>
<path d="M229.246 61.7753H230.142V65.8413H232.664V66.5991H229.246V61.7753Z" fill="white"/>
<path d="M236.991 65.8479V66.5991H233.374V61.7753H236.895V62.5265H234.27V63.781H236.599V64.5182H234.27V65.8479H236.991Z" fill="white"/>
<path d="M237.625 64.1876C237.625 62.7472 238.728 61.7067 240.209 61.7067C240.995 61.7067 241.67 61.9893 242.118 62.5132L241.54 63.0578C241.188 62.6785 240.754 62.4926 240.251 62.4926C239.251 62.4926 238.528 63.1951 238.528 64.1876C238.528 65.1801 239.251 65.8826 240.251 65.8826C240.754 65.8826 241.188 65.6966 241.54 65.3107L242.118 65.8619C241.67 66.3859 240.995 66.6678 240.203 66.6678C238.728 66.6678 237.625 65.6273 237.625 64.1876Z" fill="white"/>
<path d="M243.903 62.5332H242.305V61.7753H246.398V62.5332H244.799V66.5991H243.903V62.5332Z" fill="white"/>
<path d="M251.057 64.8975V66.5999H250.161V64.9115L248.266 61.7761H249.224L250.637 64.1263L252.063 61.7761H252.945L251.057 64.8975Z" fill="white"/>
<path d="M252.979 64.1876C252.979 62.7612 254.082 61.7067 255.577 61.7067C257.072 61.7067 258.176 62.7538 258.176 64.1876C258.176 65.6206 257.073 66.6685 255.577 66.6685C254.082 66.6678 252.979 65.614 252.979 64.1876ZM257.272 64.1876C257.272 63.2025 256.549 62.4926 255.577 62.4926C254.606 62.4926 253.882 63.2017 253.882 64.1876C253.882 65.1727 254.606 65.8826 255.577 65.8826C256.549 65.8826 257.272 65.1727 257.272 64.1876Z" fill="white"/>
<path d="M259.085 64.4975V61.7753H259.98V64.4628C259.98 65.4554 260.428 65.8826 261.208 65.8826C261.986 65.8826 262.427 65.4554 262.427 64.4628V61.7753H263.309V64.4975C263.309 65.9033 262.517 66.6678 261.2 66.6678C259.877 66.6678 259.085 65.9033 259.085 64.4975Z" fill="white"/>
<path d="M267.719 66.5991L266.733 65.186C266.671 65.1927 266.609 65.1927 266.547 65.1927H265.458V66.5984H264.562V61.7746H266.547C267.814 61.7746 268.6 62.4225 268.6 63.491C268.6 64.2216 268.228 64.7588 267.573 65.0133L268.682 66.5984L267.719 66.5991ZM266.507 62.5332H265.46V64.4555H266.507C267.292 64.4555 267.699 64.0976 267.699 63.491C267.698 62.8852 267.292 62.5332 266.507 62.5332Z" fill="white"/>
<path d="M274.659 66.5991L273.673 65.186C273.611 65.1927 273.549 65.1927 273.487 65.1927H272.398V66.5984H271.502V61.7746H273.487C274.755 61.7746 275.541 62.4225 275.541 63.491C275.541 64.2216 275.169 64.7588 274.513 65.0133L275.623 66.5984L274.659 66.5991ZM273.446 62.5332H272.398V64.4555H273.446C274.231 64.4555 274.638 64.0976 274.638 63.491C274.638 62.8852 274.231 62.5332 273.446 62.5332Z" fill="white"/>
<path d="M276.54 61.7753H277.436V66.5991H276.54V61.7753Z" fill="white"/>
<path d="M278.739 61.7753H280.847C282.411 61.7753 283.479 62.7405 283.479 64.1869C283.479 65.6339 282.411 66.5991 280.847 66.5991H278.739V61.7753ZM280.806 65.8413C281.881 65.8413 282.577 65.1867 282.577 64.1876C282.577 63.1885 281.881 62.5339 280.806 62.5339H279.634V65.8413H280.806Z" fill="white"/>
<path d="M288.048 65.8479V66.5991H284.431V61.7753H287.952V62.5265H285.327V63.781H287.656V64.5182H285.327V65.8479H288.048Z" fill="white"/>
<path opacity="0.4" d="M307.834 220.472H199.165C197.109 220.472 195.443 218.806 195.443 216.75V143.178C195.443 141.123 197.109 139.457 199.165 139.457H307.834C309.889 139.457 311.556 141.123 311.556 143.178V216.75C311.556 218.806 309.889 220.472 307.834 220.472Z" fill="white"/>
<path opacity="0.4" d="M309.941 247.325H197.059C196.166 247.325 195.443 246.602 195.443 245.709V224.104C195.443 223.212 196.166 222.488 197.059 222.488H309.941C310.833 222.488 311.556 223.212 311.556 224.104V245.709C311.556 246.602 310.832 247.325 309.941 247.325Z" fill="white"/>
<path d="M203.863 227.549V228.468H205.32V228.942H203.863V230.098H203.302V227.079H205.505V227.549H203.863Z" fill="#263238"/>
<path d="M208.022 230.099L207.405 229.215C207.367 229.219 207.327 229.219 207.288 229.219H206.607V230.099H206.046V227.08H207.288C208.082 227.08 208.574 227.485 208.574 228.154C208.574 228.61 208.341 228.947 207.931 229.107L208.625 230.099H208.022ZM207.262 227.554H206.607V228.757H207.262C207.754 228.757 208.009 228.533 208.009 228.154C208.009 227.774 207.754 227.554 207.262 227.554Z" fill="#263238"/>
<path d="M208.98 228.589C208.98 227.697 209.67 227.036 210.606 227.036C211.542 227.036 212.232 227.692 212.232 228.589C212.232 229.486 211.542 230.142 210.606 230.142C209.67 230.142 208.98 229.482 208.98 228.589ZM211.666 228.589C211.666 227.973 211.213 227.528 210.605 227.528C209.997 227.528 209.544 227.972 209.544 228.589C209.544 229.206 209.996 229.65 210.605 229.65C211.213 229.65 211.666 229.205 211.666 228.589Z" fill="#263238"/>
<path d="M215.596 230.099L215.591 228.097L214.6 229.753H214.35L213.358 228.123V230.099H212.823V227.08H213.284L214.483 229.081L215.661 227.08H216.122L216.126 230.099H215.596Z" fill="#263238"/>
<path d="M203.914 239.108H202.914V238.633H205.475V239.108H204.475V241.652H203.914V239.108Z" fill="#263238"/>
<path d="M205.637 240.143C205.637 239.251 206.327 238.591 207.262 238.591C208.198 238.591 208.888 239.247 208.888 240.143C208.888 241.041 208.198 241.696 207.262 241.696C206.327 241.696 205.637 241.036 205.637 240.143ZM208.323 240.143C208.323 239.527 207.87 239.082 207.262 239.082C206.654 239.082 206.201 239.527 206.201 240.143C206.201 240.76 206.653 241.204 207.262 241.204C207.87 241.204 208.323 240.76 208.323 240.143Z" fill="#263238"/>
<path d="M299.149 224.817H223.284C221.067 224.817 219.269 226.614 219.269 228.832C219.269 231.049 221.067 232.847 223.284 232.847H299.15C301.367 232.847 303.165 231.049 303.165 228.832C303.164 226.614 301.366 224.817 299.149 224.817Z" fill="white"/>
<path d="M299.149 236.371H223.284C221.067 236.371 219.269 238.169 219.269 240.386C219.269 242.604 221.067 244.401 223.284 244.401H299.15C301.367 244.401 303.165 242.604 303.165 240.386C303.165 238.169 301.366 236.371 299.149 236.371Z" fill="white"/>
<path d="M311.554 166.312C296.744 170.946 281.454 175.75 266.784 180.384L280.163 205.333L311.554 206.396V213.782L275.669 212.565L259.619 182.649C252.786 184.812 246.137 186.922 239.776 188.937L254.203 220.475H246.093L232.692 191.195C217.616 195.998 204.621 200.19 195.442 203.215V195.452C198.142 194.567 201.161 193.578 204.466 192.508C211.477 190.235 219.882 187.535 229.6 184.435L217.1 157.095L195.442 163.98V156.239L214.008 150.336L209.034 139.459H217.144L236.684 182.177C244.373 179.735 252.778 177.071 261.877 174.2C267.168 172.533 272.459 170.857 277.676 169.219L263.965 139.459H272.097L284.775 166.983C294.309 163.987 303.422 161.132 311.554 158.578V166.312Z" fill="#294277"/>
<path opacity="0.4" d="M311.554 143.178V216.749C311.554 218.808 309.886 220.475 307.835 220.475H199.168C197.109 220.475 195.442 218.808 195.442 216.749V143.178C195.442 141.126 197.109 139.459 199.168 139.459H307.835C309.886 139.459 311.554 141.126 311.554 143.178Z" fill="white"/>
<path d="M251.632 176.91C248.811 174.089 244.237 174.089 241.416 176.91C238.595 179.731 238.595 184.305 241.416 187.126L246.524 192.234L251.632 187.126C254.453 184.305 254.453 179.731 251.632 176.91ZM249.078 184.572C247.667 185.982 245.381 185.982 243.97 184.572C242.56 183.162 242.56 180.874 243.97 179.464C245.381 178.054 247.667 178.054 249.078 179.464C250.489 180.875 250.489 183.162 249.078 184.572Z" fill="#294277"/>
<path d="M171.359 210.986H165.978V267.249H171.359V210.986Z" fill="#263238"/>
<path opacity="0.2" d="M171.359 210.986H165.978V267.249H171.359V210.986Z" fill="black"/>
<path d="M209.872 210.986H204.491V267.249H209.872V210.986Z" fill="#263238"/>
<path opacity="0.2" d="M209.872 210.986H204.491V267.249H209.872V210.986Z" fill="black"/>
<path d="M120.008 210.986H114.627V267.249H120.008V210.986Z" fill="#263238"/>
<path d="M81.4952 210.986H76.1143V267.249H81.4952V210.986Z" fill="#263238"/>
<path d="M220.893 208.904V213.064C220.893 213.737 220.353 214.283 219.68 214.283H71.0189C70.3451 214.283 69.7991 213.738 69.7991 213.064V208.904C69.7991 208.236 70.3444 207.691 71.0189 207.691H219.68C220.353 207.691 220.893 208.236 220.893 208.904Z" fill="#263238"/>
<path opacity="0.1" d="M220.893 208.904V213.064C220.893 213.737 220.353 214.283 219.68 214.283H71.0189C70.3451 214.283 69.7991 213.738 69.7991 213.064V208.904C69.7991 208.236 70.3444 207.691 71.0189 207.691H219.68C220.353 207.691 220.893 208.236 220.893 208.904Z" fill="white"/>
<path opacity="0.2" d="M111.772 208.904V213.064C111.772 213.737 111.233 214.283 110.559 214.283H71.0189C70.3451 214.283 69.7991 213.738 69.7991 213.064V208.904C69.7991 208.236 70.3444 207.691 71.0189 207.691H110.559C111.233 207.691 111.772 208.236 111.772 208.904Z" fill="white"/>
<path d="M153.091 143.919C153.091 143.919 155.853 144.474 155.842 144.981C155.831 145.486 154.766 149.471 154.275 149.956C153.784 150.442 152.601 151.038 152.601 151.038L153.307 157.478L149.535 158.451L149.481 151.587C149.481 151.587 148.157 149.57 149.11 147.59C150.064 145.609 153.091 143.919 153.091 143.919Z" fill="#EBB376"/>
<path opacity="0.2" d="M153.091 143.919C153.091 143.919 155.853 144.474 155.842 144.981C155.831 145.486 154.766 149.471 154.275 149.956C153.784 150.442 152.601 151.038 152.601 151.038L153.307 157.478L149.535 158.451L149.481 151.587C149.481 151.587 148.157 149.57 149.11 147.59C150.064 145.609 153.091 143.919 153.091 143.919Z" fill="black"/>
<path d="M143.068 144.674C145.562 146.461 146.512 156.328 147.497 157.762C148.481 159.195 148.875 155.036 148.875 155.036L153.897 154.795C153.897 154.795 154.584 160.666 151.688 164.839C148.792 169.012 143.445 165.913 140.418 159.213C137.39 152.513 143.068 144.674 143.068 144.674Z" fill="#294277"/>
<path opacity="0.2" d="M151.684 164.841C151.03 165.782 150.254 166.354 149.406 166.594C146.495 167.426 142.757 164.402 140.415 159.214C139.66 157.537 139.441 155.786 139.548 154.101C139.877 149.08 143.068 144.675 143.068 144.675C145.56 146.459 146.511 156.33 147.497 157.762C148.483 159.195 148.873 155.035 148.873 155.035L153.895 154.792C153.895 154.792 154.581 160.667 151.684 164.841Z" fill="white"/>
<path d="M175.867 261.013L180.844 259.647L179.952 247.504L174.983 248.874L175.867 261.013Z" fill="#EBB376"/>
<path d="M181.146 258.985L175.372 259.386C175.169 259.391 175.01 259.559 175.014 259.761C175.014 259.763 175.014 259.765 175.014 259.767L175.05 264.359C175.085 264.857 175.513 265.235 176.011 265.206C178.024 265.033 178.976 264.851 181.516 264.655C183.075 264.543 186.167 264.468 188.274 263.979C190.382 263.49 189.842 261.42 188.907 261.441C186.688 261.482 183.58 260.258 182.051 259.22C181.783 259.044 181.465 258.961 181.146 258.985Z" fill="#263238"/>
<path d="M183.032 259.734C182.568 259.756 182.103 259.726 181.646 259.644C181.598 259.641 181.559 259.607 181.548 259.56C181.538 259.515 181.552 259.467 181.586 259.433C181.742 259.307 183.132 258.214 183.78 258.413C183.929 258.462 184.042 258.583 184.081 258.735C184.181 258.961 184.142 259.226 183.98 259.414C183.715 259.636 183.377 259.75 183.032 259.734ZM183.711 258.665C183.365 258.557 182.54 259.047 181.969 259.469C182.901 259.586 183.574 259.51 183.802 259.257C183.895 259.132 183.917 258.968 183.858 258.824C183.839 258.749 183.784 258.689 183.711 258.665Z" fill="#294277"/>
<path d="M181.671 259.645C181.656 259.655 181.639 259.659 181.621 259.656C181.585 259.639 181.558 259.606 181.549 259.567C181.546 259.522 181.324 258.033 181.803 257.493C181.932 257.355 182.116 257.282 182.304 257.291C182.516 257.283 182.706 257.42 182.765 257.624C182.918 258.175 182.227 259.306 181.736 259.644C181.716 259.654 181.693 259.655 181.671 259.645ZM182.236 257.549C182.14 257.555 182.05 257.601 181.988 257.676C181.697 257.997 181.72 258.846 181.766 259.329C182.183 258.921 182.616 258.078 182.535 257.707C182.519 257.639 182.469 257.558 182.296 257.549H182.236Z" fill="#294277"/>
<path opacity="0.2" d="M174.983 248.874L179.954 247.51L180.462 254.451L175.465 255.564L174.983 248.874Z" fill="black"/>
<path d="M169.361 260.834L164.664 262.976L163.466 257.93L161.862 251.138L166.546 248.99L168.156 255.775L169.361 260.834Z" fill="#EBB376"/>
<path opacity="0.2" d="M168.156 255.775L163.466 257.93L161.862 251.138L166.546 248.99L168.156 255.775Z" fill="black"/>
<path d="M169.554 260.135L163.917 261.451C163.719 261.488 163.588 261.679 163.624 261.877C163.625 261.88 163.625 261.881 163.626 261.883L164.393 266.411C164.507 266.897 164.99 267.202 165.477 267.094C167.437 266.603 168.348 266.271 170.824 265.673C172.345 265.313 175.386 264.747 177.388 263.929C179.391 263.11 178.528 261.153 177.608 261.323C175.424 261.717 172.161 261.004 170.486 260.223C170.193 260.091 169.866 260.06 169.554 260.135Z" fill="#263238"/>
<path d="M171.536 260.574C171.081 260.669 170.617 260.714 170.152 260.706C170.105 260.71 170.061 260.683 170.043 260.639C170.025 260.596 170.032 260.545 170.06 260.509C170.194 260.359 171.392 259.058 172.063 259.151C172.218 259.176 172.35 259.278 172.412 259.422C172.548 259.63 172.55 259.897 172.421 260.108C172.195 260.368 171.879 260.534 171.536 260.574ZM172.035 259.411C171.677 259.359 170.94 259.974 170.443 260.481C171.382 260.449 172.035 260.267 172.219 259.98C172.291 259.842 172.286 259.677 172.206 259.544C172.176 259.472 172.111 259.422 172.035 259.411Z" fill="#294277"/>
<path d="M170.179 260.703C170.166 260.714 170.149 260.721 170.131 260.722C170.093 260.71 170.061 260.682 170.045 260.645C170.035 260.601 169.578 259.166 169.966 258.557C170.072 258.401 170.241 258.298 170.429 258.279C170.636 258.237 170.846 258.342 170.937 258.533C171.177 259.053 170.674 260.279 170.243 260.691C170.225 260.705 170.201 260.708 170.179 260.703ZM170.403 258.544C170.308 258.566 170.226 258.625 170.177 258.709C169.941 259.071 170.098 259.906 170.222 260.375C170.569 259.907 170.861 259.005 170.721 258.653C170.695 258.587 170.633 258.515 170.461 258.535L170.403 258.544Z" fill="#294277"/>
<path d="M134.523 191.876L133.007 175.097L104.99 175.755C104.99 175.755 101.673 199.135 104.084 203.43C108.388 211.097 136.632 206.742 143.236 207.397C145.932 208.835 160.368 256.671 160.368 256.671L168.45 253.409C168.45 253.409 159.758 213.036 157.778 205.432C155.023 194.858 143.805 195.043 134.523 191.876Z" fill="#294277"/>
<path opacity="0.6" d="M134.523 191.876L133.007 175.097L104.99 175.755C104.99 175.755 101.673 199.135 104.084 203.43C108.388 211.097 136.632 206.742 143.236 207.397C145.932 208.835 160.368 256.671 160.368 256.671L168.45 253.409C168.45 253.409 159.758 213.036 157.778 205.432C155.023 194.858 143.805 195.043 134.523 191.876Z" fill="white"/>
<path d="M180.955 252.585L173.826 253.244C173.826 253.244 165.084 208.728 164.407 208.54C163.188 208.193 159.645 207.795 157.743 207.298C144.515 203.857 111.937 197.527 111.937 197.527L123.949 185.953C123.949 185.953 178.415 192.492 179.628 205.273C180.207 211.421 180.955 252.585 180.955 252.585Z" fill="#294277"/>
<path opacity="0.6" d="M180.955 252.585L173.826 253.244C173.826 253.244 165.084 208.728 164.407 208.54C163.188 208.193 159.645 207.795 157.743 207.298C144.515 203.857 111.937 197.527 111.937 197.527L123.949 185.953C123.949 185.953 178.415 192.492 179.628 205.273C180.207 211.421 180.955 252.585 180.955 252.585Z" fill="white"/>
<path opacity="0.2" d="M162.481 208.571C161.262 208.225 159.645 207.795 157.742 207.299C158.269 207.577 156.737 200.645 155.213 198.853C152.184 195.28 140.013 193.35 135.649 192.649C132 192.065 119.753 190.984 119.753 190.984C119.753 190.984 141.37 189.117 157.664 193.588C165.719 195.802 164.284 203.663 162.481 208.571Z" fill="black"/>
<path d="M133.644 178.523C135.286 169.126 138.042 156.541 143.143 144.77C140.461 143.634 137.698 142.697 134.879 141.965C130.763 140.85 126.585 139.973 122.368 139.339C119.452 139.029 116.516 138.948 113.588 139.096C113.588 139.096 107.271 150.893 104.068 178.522L133.644 178.523Z" fill="#294277"/>
<path d="M147.697 146.126C147.63 146.386 147.792 146.627 148.06 146.665L152.82 147.331C153.088 147.369 153.359 147.188 153.426 146.928L155.803 137.683C155.871 137.423 155.717 137.117 155.449 137.079L150.69 136.413C150.422 136.375 150.141 136.621 150.075 136.88L147.697 146.126Z" fill="#263238"/>
<path opacity="0.5" d="M150.612 136.892L148.208 146.226C148.14 146.49 148.254 146.69 148.52 146.728L152.556 147.293C152.827 147.331 153.343 147.251 153.412 146.989L155.821 137.621C155.889 137.358 155.457 137.079 155.186 137.041L151.15 136.477C150.883 136.439 150.68 136.63 150.612 136.892Z" fill="white"/>
<path d="M124.53 147.302C124.53 147.302 117.18 141.436 116.25 137.965C115.319 134.495 119.64 132.158 125.69 133.496C131.74 134.834 137.341 138.643 135.556 143.128C133.772 147.614 130.64 148.63 130.64 148.63C130.64 148.63 129.34 146.059 124.53 147.302Z" fill="#294277"/>
<path d="M139.824 151.191L144.076 148.401C144.076 148.401 145.88 142.959 146.293 142.424C146.706 141.89 151.186 143.109 151.684 143.179C152.181 143.248 150.868 148.789 150.267 149.267C149.665 149.745 147.711 149.81 147.711 149.81L142.881 154.067L139.824 151.191Z" fill="#EBB376"/>
<path opacity="0.2" d="M124.53 147.302C124.53 147.302 117.18 141.436 116.25 137.965C115.319 134.495 119.64 132.158 125.69 133.496C131.74 134.834 137.341 138.643 135.556 143.128C133.772 147.614 130.64 148.63 130.64 148.63C130.64 148.63 129.34 146.059 124.53 147.302Z" fill="white"/>
<path d="M129.341 128.794C128.222 132.831 125.568 139.927 121.768 141.095C121.768 141.095 124.567 145.674 128.756 146.058C131.421 146.302 132.897 143.293 132.897 143.293C130.178 142.786 131.217 140.794 133.361 138.294L129.341 128.794Z" fill="#EBB376"/>
<path opacity="0.2" d="M130.978 132.667L133.356 138.291C132.848 138.868 132.39 139.488 131.988 140.142C129.316 140.343 127.399 136.109 128.052 134.387C128.288 133.678 130.501 133.244 130.978 132.667Z" fill="black"/>
<path d="M138.57 122.35C136.022 123.404 136.508 126.184 140.732 131.249C143.335 129.011 144.744 123.912 143.381 122.275C142.017 120.638 140.789 121.441 138.57 122.35Z" fill="#263238"/>
<path d="M128.1 124.527C127.213 130.038 126.419 133.214 128.532 136.622C131.717 141.744 138.986 140.764 141.504 135.627C143.758 131.012 144.835 122.773 140.001 119.42C136.558 117.005 131.811 117.838 129.397 121.281C128.719 122.247 128.274 123.359 128.1 124.527Z" fill="#EBB376"/>
<path d="M135.882 127.839C135.783 128.281 135.939 128.694 136.228 128.757C136.517 128.82 136.827 128.518 136.926 128.076C137.024 127.634 136.875 127.224 136.588 127.155C136.302 127.087 136.01 127.411 135.882 127.839Z" fill="#263238"/>
<path d="M140.909 128.976C140.81 129.418 140.966 129.83 141.255 129.893C141.545 129.957 141.86 129.657 141.961 129.209C142.063 128.761 141.905 128.354 141.616 128.292C141.327 128.228 141.009 128.534 140.909 128.976Z" fill="#263238"/>
<path d="M139.222 128.816C139.446 130.287 139.871 131.72 140.487 133.075C139.524 133.626 138.282 132.993 138.282 132.993L139.222 128.816Z" fill="#D58745"/>
<path d="M134.865 125.945C134.806 125.939 134.75 125.913 134.708 125.872C134.612 125.761 134.623 125.592 134.734 125.495C135.375 124.923 136.256 124.7 137.092 124.897C137.229 124.933 137.312 125.073 137.276 125.21C137.275 125.216 137.273 125.222 137.271 125.228C137.225 125.365 137.081 125.443 136.94 125.407C136.279 125.262 135.589 125.445 135.085 125.898C135.021 125.944 134.941 125.961 134.865 125.945Z" fill="#263238"/>
<path d="M143.58 127.795C143.48 127.772 143.402 127.694 143.376 127.594C143.24 126.93 142.794 126.371 142.178 126.091C142.04 126.039 141.969 125.886 142.018 125.747C142.068 125.612 142.217 125.54 142.355 125.585C143.143 125.929 143.715 126.632 143.893 127.473C143.927 127.614 143.84 127.756 143.699 127.791C143.698 127.791 143.697 127.791 143.695 127.791C143.657 127.8 143.618 127.801 143.58 127.795Z" fill="#263238"/>
<path d="M131.347 120.195C133.692 121.637 132.765 124.306 127.789 128.628C125.575 126.001 124.996 120.737 126.61 119.349C128.223 117.961 129.297 118.94 131.347 120.195Z" fill="#263238"/>
<path d="M124.535 128.292C124.617 129.695 125.253 131.007 126.301 131.942C127.701 133.165 129.198 132.105 129.48 130.368C129.733 128.801 129.306 126.274 127.581 125.722C125.855 125.17 124.441 126.572 124.535 128.292Z" fill="#EBB376"/>
<path d="M127.02 119.044C127.02 119.044 126.526 116.886 130.408 114.836C134.289 112.786 140.567 114.518 144.648 117.473C148.73 120.428 143.765 124.139 141.781 124.221L142.335 123.535C142.335 123.535 138.881 123.761 136.11 122.475L137.373 122.059C137.373 122.059 129.474 120.614 127.02 119.044Z" fill="#263238"/>
<path d="M137.362 134.193C136.92 134.776 136.356 135.927 136.356 135.927C136.243 135.895 136.129 135.863 136.018 135.825C134.489 135.348 133.938 134.622 133.79 133.961C133.711 133.6 133.757 133.255 133.83 132.985C133.91 132.672 134.04 132.467 134.04 132.467C134.699 133.203 136.089 133.758 136.844 134.022C137.159 134.136 137.362 134.193 137.362 134.193Z" fill="#263238"/>
<path d="M136.844 134.022L136.534 134.525C135.095 134.073 134.143 133.561 133.829 132.983C133.91 132.671 134.039 132.465 134.039 132.465C134.698 133.203 136.089 133.758 136.844 134.022Z" fill="white"/>
<path d="M136.018 135.824C134.49 135.347 133.939 134.621 133.791 133.96C134.305 134.143 134.905 134.42 135.383 134.826C135.749 135.135 135.928 135.492 136.018 135.824Z" fill="#A24E3F"/>
<path d="M133.356 163.458C133.351 163.458 133.347 163.458 133.342 163.457C133.241 163.451 133.164 163.363 133.171 163.261C133.787 154.219 130.76 148.322 130.729 148.264C130.682 148.174 130.717 148.062 130.807 148.014C130.897 147.967 131.009 148.002 131.056 148.092C131.087 148.151 134.162 154.133 133.539 163.286C133.532 163.384 133.452 163.458 133.356 163.458Z" fill="white"/>
<path d="M122.174 160.242C122.143 160.242 122.11 160.234 122.081 160.217C121.993 160.165 121.963 160.051 122.016 159.963C125.329 154.331 124.357 146.699 124.348 146.623C124.334 146.522 124.405 146.429 124.506 146.416C124.602 146.404 124.699 146.473 124.713 146.575C124.723 146.653 125.713 154.407 122.334 160.151C122.299 160.209 122.237 160.242 122.174 160.242Z" fill="white"/>
<path d="M133.213 163.149C133.213 163.149 133.805 163.182 133.7 164.139L132.835 164.052C132.835 164.052 132.737 163.252 133.213 163.149Z" fill="white"/>
<path d="M122.229 159.715C122.229 159.715 122.721 160.046 122.141 160.814L121.443 160.297C121.443 160.297 121.768 159.559 122.229 159.715Z" fill="white"/>
<path d="M114.295 139.106C117.136 139.761 123.946 151.54 127.584 153.709C131.221 155.878 141.29 148.901 141.29 148.901L144.74 153.188C144.74 153.188 136.588 160.377 129.45 160.548C122.311 160.718 112.197 150.628 110.689 146.928C109.181 143.229 110.843 138.31 114.295 139.106Z" fill="#294277"/>
<path opacity="0.2" d="M114.295 139.106C117.136 139.761 123.946 151.54 127.584 153.709C131.221 155.878 141.29 148.901 141.29 148.901L144.74 153.188C144.74 153.188 136.588 160.377 129.45 160.548C122.311 160.718 112.197 150.628 110.689 146.928C109.181 143.229 110.843 138.31 114.295 139.106Z" fill="white"/>
<path d="M107.307 169.612C107.307 169.612 113.027 173.893 115.075 183.527C117.123 193.16 124.826 214.463 107.307 206.05L107.76 204.059C107.76 204.059 113.348 208.827 115.387 205.616C117.426 202.404 116.369 185.181 108.138 176.034L107.307 169.612Z" fill="#263238"/>
<path d="M95.5031 165.622C95.5031 165.622 97.581 161.438 100.643 161.34C103.707 161.243 104.777 162.119 104.582 165.136L103.204 165.233C103.204 165.233 104.6 162.709 101.273 162.605C97.9456 162.503 96.9914 165.622 96.9914 165.622H95.5031Z" fill="#263238"/>
<path d="M78.8046 207.691C78.8046 207.691 76.1141 191.02 83.12 185.966C83.12 185.966 82.0072 182.466 87.6508 170.974C89.9923 166.206 91.978 164.891 93.9498 164.809L107.614 164.243C109.054 164.183 110.3 165.226 110.492 166.654C111.45 173.78 113.771 194.443 110.559 207.69H78.8046V207.691Z" fill="#263238"/>
<path opacity="0.1" d="M78.8046 207.691C78.8046 207.691 76.1141 191.02 83.12 185.966C83.12 185.966 82.0072 182.466 87.6508 170.974C89.9923 166.206 91.978 164.891 93.9498 164.809L107.614 164.243C109.054 164.183 110.3 165.226 110.492 166.654C111.45 173.78 113.771 194.443 110.559 207.69H78.8046V207.691Z" fill="white"/>
<path d="M100.756 182.464C102.106 182.514 103.158 181.272 102.85 179.955C102.215 177.239 100.444 173.27 95.5032 172.531C90.2027 171.739 86.8488 176.53 85.2903 179.543C84.7339 180.619 85.4925 181.905 86.7035 181.949L100.756 182.464Z" fill="#263238"/>
<path d="M81.0339 190.144C81.3777 188.946 99.0362 189.658 100.204 190.144C101.371 190.63 99.9631 202.891 98.916 204.059C97.8681 205.226 80.6465 204.448 79.3322 204.059C78.0172 203.67 78.212 199.972 81.0339 190.144Z" fill="#263238"/>
<path opacity="0.2" d="M100.756 182.464C102.106 182.514 103.158 181.272 102.85 179.955C102.215 177.239 100.444 173.27 95.5032 172.531C90.2027 171.739 86.8488 176.53 85.2903 179.543C84.7339 180.619 85.4925 181.905 86.7035 181.949L100.756 182.464Z" fill="white"/>
<path opacity="0.2" d="M81.0339 190.144C81.3777 188.946 99.0362 189.658 100.204 190.144C101.371 190.63 99.9631 202.891 98.916 204.059C97.8681 205.226 80.6465 204.448 79.3322 204.059C78.0172 203.67 78.212 199.972 81.0339 190.144Z" fill="white"/>
<path d="M109.351 194.599C109.335 194.599 109.319 194.599 109.302 194.596C109.1 194.569 108.958 194.384 108.985 194.181C109.933 187.071 108.428 169.776 108.117 168.533C107.811 167.309 107.041 166.649 105.828 166.574C104.304 166.479 92.1559 166.573 92.0327 166.575C92.0327 166.575 92.0312 166.575 92.0297 166.575C91.8275 166.575 91.6623 166.411 91.6608 166.209C91.6593 166.005 91.8231 165.838 92.0268 165.837C92.5286 165.832 104.325 165.741 105.874 165.837C107.4 165.933 108.451 166.827 108.832 168.354C109.127 169.53 110.712 186.805 109.716 194.279C109.691 194.464 109.533 194.599 109.351 194.599Z" fill="#263238"/>
<path d="M98.1964 192.848C98.1721 192.848 98.1477 192.846 98.1226 192.841C93.8729 191.983 81.6322 192.454 81.509 192.459C81.3172 192.46 81.1341 192.308 81.126 192.104C81.1179 191.902 81.2766 191.73 81.4802 191.721C81.9864 191.702 93.9327 191.243 98.2687 192.117C98.4687 192.158 98.5979 192.352 98.5573 192.552C98.5226 192.727 98.3684 192.848 98.1964 192.848Z" fill="#263238"/>
<path d="M101.663 179.808C101.507 179.808 101.363 179.71 101.312 179.553C100.502 177.06 98.4753 172.938 94.033 173.287C89.48 173.654 87.5274 178.605 87.5083 178.655C87.4352 178.845 87.2219 178.94 87.0316 178.867C86.8412 178.794 86.746 178.58 86.819 178.39C86.9039 178.169 88.9627 172.955 93.9739 172.552C98.9269 172.136 101.137 176.625 102.014 179.326C102.076 179.52 101.97 179.728 101.777 179.791C101.739 179.803 101.701 179.808 101.663 179.808Z" fill="#263238"/>
<path d="M76.5579 228.111H57.4855V241.442H76.5579V228.111Z" fill="#263238"/>
<path d="M51.3547 225.09V267.248H77.6765V225.09H51.3547ZM74.806 237.547H66.4379V232.499C66.4379 231.326 67.3898 230.374 68.5631 230.374H72.6807C73.854 230.374 74.806 231.326 74.806 232.499V237.547Z" fill="#407BFF"/>
<path opacity="0.6" d="M51.3547 225.09V267.248H77.6765V225.09H51.3547ZM74.806 237.547H66.4379V232.499C66.4379 231.326 67.3898 230.374 68.5631 230.374H72.6807C73.854 230.374 74.806 231.326 74.806 232.499V237.547Z" fill="white"/>
<path opacity="0.4" d="M62.6428 225.093H51.3547V267.249H62.6428V225.093Z" fill="white"/>
<path d="M78.297 222.869H50.6736V226.943H78.297V222.869Z" fill="#407BFF"/>
<path opacity="0.2" d="M63.4212 222.869H50.6736V226.943H63.4212V222.869Z" fill="white"/>
</svg>
