<svg width="20" height="25" viewBox="0 0 20 25" fill="none" xmlns="http://www.w3.org/2000/svg">
<path d="M15.9074 4.11477L12.0633 0.270669C12.0127 0.220039 11.9623 0.194813 11.9116 0.169586V4.26649H16.0085C15.9833 4.21586 15.9327 4.16523 15.9074 4.11478L15.9074 4.11477Z" fill="#294277"/>
<path d="M16.1096 14.5089V5.70802H11.1781C10.7734 5.70802 10.47 5.3792 10.47 4.99991V0.0683899H0.708115C0.303438 0.0683899 0 0.397212 0 0.776505V20.0474C0 20.452 0.328822 20.7555 0.708115 20.7555H9.53426C10.2171 22.6774 12.0632 24.0684 14.2129 24.0684C16.9442 24.0684 19.195 21.8428 19.195 19.0863C19.1948 17.038 17.9049 15.2676 16.1094 14.5088L16.1096 14.5089ZM3.9705 4.2665H7.48579C7.89047 4.2665 8.1939 4.59532 8.1939 4.97462C8.1939 5.37929 7.86508 5.68273 7.48579 5.68273H3.9705C3.56582 5.68273 3.26239 5.35391 3.26239 4.97462C3.26239 4.59516 3.59121 4.2665 3.9705 4.2665ZM3.9705 8.11042H12.1138C12.5185 8.11042 12.8219 8.43924 12.8219 8.81853C12.8219 9.22321 12.4931 9.52665 12.1138 9.52665L3.9705 9.52682C3.56582 9.52682 3.26239 9.198 3.26239 8.81871C3.26239 8.43926 3.59121 8.11041 3.9705 8.11041V8.11042ZM3.9705 11.9545H12.1138C12.5185 11.9545 12.8219 12.2833 12.8219 12.6626C12.8219 13.0419 12.4931 13.3707 12.1138 13.3707H3.9705C3.56582 13.3707 3.26239 13.0419 3.26239 12.6626C3.26239 12.2834 3.59121 11.9545 3.9705 11.9545ZM8.37098 17.2148H3.9705C3.56582 17.2148 3.26239 16.886 3.26239 16.5067C3.26239 16.1274 3.59121 15.7986 3.9705 15.7986H8.37098C8.77566 15.7986 9.07909 16.1274 9.07909 16.5067C9.07909 16.886 8.77549 17.2148 8.37098 17.2148ZM14.2129 22.6521C12.2656 22.6521 10.6724 21.0588 10.6724 19.1116C10.6724 17.1643 12.2657 15.5711 14.2129 15.5711C16.1603 15.5711 17.7534 17.1644 17.7534 19.1116C17.7534 21.059 16.1603 22.6521 14.2129 22.6521Z" fill="#294277"/>
<path d="M15.1739 17.7207L13.6312 19.2634L13.1254 18.7576C12.8472 18.4794 12.3921 18.4794 12.1139 18.7576C11.8357 19.0358 11.8357 19.4909 12.1139 19.7691L13.1508 20.806C13.3026 20.9578 13.4797 21.0084 13.6566 21.0084C13.8337 21.0084 14.0359 20.9325 14.1623 20.806L16.2362 18.7322C16.5144 18.454 16.5144 17.9989 16.2362 17.7207C15.9072 17.4425 15.4521 17.4425 15.1739 17.7207H15.1739Z" fill="#294277"/>
</svg>
