<svg width="17" height="17" viewBox="0 0 17 17" fill="none" xmlns="http://www.w3.org/2000/svg">
<path d="M2.47005 1.82772e-07C2.1706 1.82772e-07 1.9447 0.213099 1.9447 0.467371V7.52122V8.52389C1.9447 8.52367 1.9447 8.52411 1.9447 8.52389V8.60447L2.5064 4.44121C2.57534 3.93054 3.06433 3.54118 3.60715 3.54118H13.528C14.0708 3.54118 14.5598 3.93053 14.6287 4.44121L15.1902 8.60276V8.5239V7.52123V0.467371C15.1902 0.213094 14.9645 0 14.6651 0L2.47005 1.82772e-07ZM3.60715 3.79404C3.18705 3.79404 2.80463 4.10958 2.75529 4.47506L2.14996 8.96383V13.821H14.985V8.96383L14.3796 4.47506C14.3303 4.10958 13.9481 3.79404 13.528 3.79404H3.60715ZM4.59799 4.9045H12.5371C12.9057 4.9045 13.2384 5.1613 13.2864 5.51095L13.6751 8.34346C13.6991 8.51828 13.6393 8.68561 13.5254 8.80183C13.4115 8.91805 13.2468 8.98484 13.0625 8.98484H4.07264C3.88837 8.98484 3.72341 8.91805 3.60951 8.80183C3.4956 8.68561 3.43605 8.51828 3.46005 8.34346L3.84877 5.51095C3.89675 5.16131 4.22946 4.9045 4.59799 4.9045ZM4.59799 5.15629C4.35019 5.15629 4.1254 5.34367 4.09765 5.54588L3.70978 8.37817C3.69591 8.47925 3.72635 8.56143 3.7889 8.62525C3.85145 8.68907 3.94874 8.73304 4.07264 8.73304H13.0625C13.1864 8.73304 13.2835 8.68908 13.346 8.62525C13.4086 8.56143 13.4392 8.47924 13.4253 8.37817L13.0375 5.54588C13.0097 5.34366 12.785 5.15629 12.5371 5.15629H4.59799ZM0.525357 5.50623C0.225849 5.50623 0 5.71928 0 5.9736V7.93116C0 8.18544 0.225805 8.39768 0.525357 8.39768H0.915793H1.36268H1.6926V7.64765H1.36268C1.29295 7.64779 1.23639 7.5911 1.23652 7.52122V5.50623L0.525357 5.50623ZM15.7635 5.50623V7.52122C15.7636 7.59102 15.7072 7.64767 15.6375 7.64765H15.4425V8.39768H15.6375H16.0844H16.4746C16.7742 8.39768 17 8.18544 17 7.93116V5.9736C17 5.71928 16.7742 5.50623 16.4746 5.50623H15.7635ZM4.90653 10.6889C5.47984 10.6889 5.95874 11.1174 5.95874 11.6583C5.95874 12.1993 5.47984 12.6287 4.90653 12.6287C4.33322 12.6287 3.85432 12.1993 3.85432 11.6583C3.85432 11.1174 4.33322 10.6889 4.90653 10.6889ZM12.2284 10.6889C12.8017 10.6889 13.2806 11.1174 13.2806 11.6583C13.2806 12.1993 12.8017 12.6287 12.2284 12.6287C11.6551 12.6287 11.1762 12.1993 11.1762 11.6583C11.1762 11.1174 11.6551 10.6889 12.2284 10.6889ZM4.90653 10.9415C4.45691 10.9415 4.10663 11.2674 4.10663 11.6583C4.10663 12.0492 4.45691 12.376 4.90653 12.376C5.35616 12.376 5.70665 12.0492 5.70665 11.6583C5.70665 11.2674 5.35616 10.9415 4.90653 10.9415ZM12.2284 10.9415C11.7788 10.9415 11.4283 11.2674 11.4283 11.6583C11.4283 12.0492 11.7788 12.376 12.2284 12.376C12.678 12.376 13.0285 12.0492 13.0285 11.6583C13.0285 11.2674 12.678 10.9415 12.2284 10.9415ZM1.36374 14.0728V14.5976C1.36374 14.8518 1.58933 15.0649 1.88889 15.0649H15.2364C15.5359 15.0649 15.7624 14.8518 15.7624 14.5976V14.0728H1.36374ZM3.24023 15.3178V16.5326C3.24023 16.7868 3.46613 17 3.76559 17H4.54218C4.84166 17 5.06732 16.7868 5.06732 16.5326V15.3178H3.24023ZM12.0588 15.3178V16.5326C12.0588 16.7868 12.2845 17 12.584 17H13.3599C13.6594 17 13.8859 16.7868 13.8859 16.5326V15.3178H12.0588Z" fill="#294277"/>
</svg>
