<svg width="91" height="91" viewBox="0 0 91 91" fill="none" xmlns="http://www.w3.org/2000/svg">
<circle cx="45.5" cy="45.5" r="45.5" fill="white"/>
<path d="M34.922 34.4319C34.922 34.4319 37.1456 40.5744 38.6271 42.8793C39.5457 44.3072 40.8498 46.7195 46.0382 46.7195C51.2266 46.7195 52.5298 44.3072 53.4493 42.8793C54.9317 40.5752 57.1553 34.4319 57.1553 34.4319C57.9729 34.4319 58.6368 33.7439 58.6368 32.8967V29.8246C58.6368 28.9756 57.9729 28.2876 57.1553 28.2876V25.9835C57.1553 20.6091 54.2211 16 46.0382 16C37.8842 16 34.9211 20.6082 34.9211 25.9835V28.2876C34.1799 28.2876 33.4379 28.9756 33.4379 29.8246V32.8967C33.4387 33.7439 34.1027 34.4319 34.922 34.4319ZM68.9762 63.6276C68.9584 62.4998 68.9389 61.342 68.9202 61.1502C68.0389 52.7837 62.1577 48.5485 54.1684 47.0221C52.8448 48.5476 50.6 50.0925 46.0399 50.0925C41.4645 50.0925 39.2197 48.5388 37.8978 47.0081C29.8754 48.5239 23.9628 52.7599 23.0798 61.1493C23.0501 61.4326 23.0238 63.8229 23 65.1118L23.0144 65.0959L23 66.266C29.3346 71.3044 37.0284 74 46 74C54.8731 74 62.6935 71.2076 69 66.266V63.6267L68.9762 63.6276Z" fill="#294277"/>
</svg>
