<svg width="22" height="17" viewBox="0 0 22 17" fill="none" xmlns="http://www.w3.org/2000/svg">
<path d="M0.459459 0C0.337607 1.21888e-05 0.220749 0.0484231 0.134586 0.134586C0.0484235 0.220748 1.23269e-05 0.337607 0 0.459459V8.64358H13.5541V0.459459C13.554 0.337607 13.5056 0.220748 13.4195 0.134586C13.3333 0.0484231 13.2164 1.21888e-05 13.0946 0H0.459459ZM14.4694 4.13513C14.474 6.77873 14.474 9.42252 14.474 12.0662C15.0413 11.4879 15.8024 11.0994 16.6214 11.0414C17.3122 10.9805 18.0191 11.1318 18.6217 11.4757C19.8362 12.1368 20.5261 13.5782 20.3446 14.9324H21.137C21.2589 14.9324 21.3757 14.884 21.4619 14.7978C21.5481 14.7117 21.5965 14.5948 21.5965 14.473V8.72973C21.5965 8.60788 21.548 8.49103 21.4619 8.40488L17.3267 4.26974C17.2838 4.22685 17.2329 4.19288 17.1768 4.16977C17.1207 4.14667 17.0607 4.13489 17 4.13513L14.4694 4.13513ZM0 9.5625V14.473C1.23269e-05 14.5948 0.0484235 14.7117 0.134586 14.7978C0.220749 14.884 0.337607 14.9324 0.459459 14.9324H1.25097C1.2234 14.726 1.21605 14.5161 1.23121 14.3052C1.27624 12.6369 2.70213 11.1592 4.36486 11.0414C5.05562 10.9805 5.76263 11.1318 6.36512 11.4757C7.5797 12.1368 8.26958 13.5782 8.08809 14.9324H13.0946C13.2164 14.9324 13.3333 14.884 13.4195 14.7978C13.5056 14.7117 13.554 14.5948 13.5541 14.473V9.5625H0ZM4.66999 11.9459C3.27976 11.9459 2.14296 13.0828 2.14296 14.473C2.14296 15.8632 3.27976 17 4.66999 17C6.06018 17 7.19702 15.8632 7.19702 14.473C7.19702 13.0828 6.06018 11.9459 4.66999 11.9459ZM16.9255 11.9459C15.5353 11.9459 14.3985 13.0828 14.3985 14.473C14.3985 15.8632 15.5353 17 16.9255 17C18.3157 17 19.4525 15.8632 19.4525 14.473C19.4525 13.0828 18.3157 11.9459 16.9255 11.9459Z" fill="#294277"/>
</svg>
