<svg width="19" height="16" viewBox="0 0 19 16" fill="none" xmlns="http://www.w3.org/2000/svg">
<path d="M15.6055 10.5263V8.53884C15.6055 7.80273 16.1943 7.21384 16.9305 7.21384H18.4763V4.8583C18.4763 3.90136 17.7402 3.16526 16.7832 3.16526H15.9735V1.91388C15.9735 0.883328 15.1638 0 14.0596 0H1.91388C0.883328 0 0 0.809717 0 1.91388V14.2069C0 15.1638 0.736107 15.8999 1.69305 15.8999H16.7832C17.7402 15.8999 18.4763 15.1638 18.4763 14.2069V11.7777H16.9305C16.1943 11.8513 15.6055 11.2624 15.6055 10.5263ZM15.0902 3.16526H1.98749C1.3986 3.16526 0.883328 2.64998 0.883328 2.0611C0.883328 1.47221 1.3986 0.956939 1.98749 0.956939H14.1332C14.6485 0.956939 15.0902 1.3986 15.0902 1.91388V3.16526Z" fill="#294277"/>
</svg>
